<?xml version="1.0" encoding="utf-8"?>
<!-- Generator: Adobe Illustrator 23.0.0, SVG Export Plug-In . SVG Version: 6.00 Build 0)  -->
<svg version="1.1" id="Layer_1" xmlns="http://www.w3.org/2000/svg" xmlns:xlink="http://www.w3.org/1999/xlink" x="0px" y="0px"
	 viewBox="0 0 595.28 538.58" style="enable-background:new 0 0 595.28 538.58;" xml:space="preserve">
<style type="text/css">
	.st0{fill:#EDEDED;}
	.st1{opacity:0.8;}
	.st2{fill:#F1A45E;}
	.st3{fill:#081927;}
	.st4{fill:#0C5375;}
	.st5{opacity:0.6;}
	.st6{fill:#E5E4E3;}
	.st7{fill:#C0BEBE;}
	.st8{fill:#F93833;}
	.st9{fill:#D42222;}
	.st10{opacity:0.15;fill:#F7E7D0;}
	.st11{fill:#F2E1CB;}
	.st12{fill:#FF8A8A;}
	.st13{fill:#F7E7D0;}
	.st14{opacity:0.5;}
	.st15{fill:#F8BB19;}
	.st16{fill:#D6C4B0;}
	.st17{fill:#E43E3E;}
	.st18{opacity:0.59;fill:#BA4437;}
	.st19{fill:#FCFCFF;}
	.st20{fill:#EDEDEF;}
	.st21{opacity:0.5;fill:#D1CEB2;}
	.st22{fill:#7DB741;}
	.st23{fill:#BDCB00;}
	.st24{opacity:0.15;fill:#FFFFFF;}
	.st25{fill:#8FB300;}
	.st26{opacity:0.25;fill:#7DB741;}
	.st27{opacity:0.25;fill:#FFFFFF;}
	.st28{fill:#7FA02C;}
	.st29{opacity:0.5;fill:#7FA02C;}
	.st30{opacity:0.5;fill:#F8791F;}
	.st31{fill:#CF5B00;}
	.st32{fill:#2E6234;}
	.st33{fill:#528000;}
	.st34{fill:#72990F;}
	.st35{fill:#E3F5C0;}
	.st36{opacity:0.25;}
	.st37{fill:#FBFBFB;}
	.st38{fill:#F7BDA4;}
	.st39{fill:#580303;}
	.st40{opacity:0.25;fill:#580303;}
	.st41{fill:#FFFFFF;}
	.st42{fill:#FFB197;}
	.st43{fill:#A90B0B;}
	.st44{opacity:0.35;}
</style>
<g>
	<g>
		<g>
			<g>
				<path class="st0" d="M254.93,211.48l-34,13.33l-17.23,6.75c-8.69,2.22-17.54-2.96-19.83-11.62c-0.16-0.6-0.28-1.22-0.39-1.83
					c-0.63-4.27,0.47-8.49,2.86-11.84c1.98-2.79,4.87-4.96,8.36-6.08l47.53-11.83l3.66,6.66l7.15,13.03L254.93,211.48z"/>
			</g>
		</g>
		<g>
			<g class="st1">
				<g>
					<g>
						<g>
							<path class="st2" d="M467.2,430.77l-237.04-39.18c-14.25-2.35-23.89-15.81-21.53-30.06l53.02-320.76
								c2.35-14.25,15.81-23.89,30.06-21.53l237.04,39.18c14.25,2.35,23.89,15.81,21.53,30.06l-53.02,320.76
								C494.9,423.49,481.45,433.13,467.2,430.77z"/>
							<path class="st0" d="M463.63,413.45l-224.53-37.11c-9.03-1.49-15.13-10.02-13.64-19.05L276.23,50.2
								c1.49-9.03,10.02-15.13,19.05-13.64L519.8,73.67c9.03,1.49,15.13,10.02,13.64,19.05L482.68,399.8
								C481.19,408.83,472.66,414.94,463.63,413.45z"/>
						</g>
						<path class="st3" d="M454.74,70.22l-96.76-15.99c-3.63-0.6-6.09-4.03-5.49-7.67l3.14-18.97c0.6-3.63,4.03-6.09,7.67-5.49
							l96.76,15.99c3.63,0.6,6.09,4.03,5.49,7.67l-3.14,18.97C461.8,68.36,458.37,70.82,454.74,70.22z"/>
					</g>
					<g>
						<path class="st4" d="M325.59,183.53l-42.11-6.96l6.97-42.19l42.11,6.96L325.59,183.53z M289.4,172.34l31.96,5.28l5.3-32.05
							l-31.96-5.28L289.4,172.34z"/>
					</g>
					<g>
						<path class="st4" d="M303.93,167.94l-9.77-16.87c-0.71-1.23-0.29-2.8,0.94-3.51c1.23-0.71,2.8-0.29,3.51,0.94l7.26,12.53
							l32.75-17.91c1.25-0.68,2.81-0.22,3.49,1.02c0.68,1.25,0.22,2.81-1.02,3.49L303.93,167.94z"/>
					</g>
					<g>
						<g>
							
								<rect x="418.63" y="100.42" transform="matrix(0.1631 -0.9866 0.9866 0.1631 186.3041 556.5449)" class="st4" width="5.14" height="136.08"/>
						</g>
					</g>
					<g>
						<g>
							
								<rect x="394.31" y="138.49" transform="matrix(0.1631 -0.9866 0.9866 0.1631 149.3483 546.6303)" class="st4" width="5.14" height="93.58"/>
						</g>
					</g>
					<g class="st5">
						<path class="st4" d="M315.93,241.99l-42.11-6.96l6.97-42.19l42.11,6.96L315.93,241.99z M279.74,230.79l31.96,5.28l5.3-32.05
							l-31.96-5.28L279.74,230.79z"/>
					</g>
					<g>
						<path class="st4" d="M294.27,226.39l-9.77-16.87c-0.71-1.23-0.29-2.8,0.94-3.51c1.23-0.71,2.8-0.29,3.51,0.94l7.26,12.53
							l32.75-17.91c1.25-0.68,2.81-0.22,3.49,1.02c0.68,1.25,0.22,2.81-1.02,3.49L294.27,226.39z"/>
					</g>
					<g>
						<g>
							
								<rect x="408.97" y="158.87" transform="matrix(0.1631 -0.9866 0.9866 0.1631 120.548 595.932)" class="st4" width="5.14" height="136.08"/>
						</g>
					</g>
					<g>
						<g>
							
								<rect x="384.64" y="196.95" transform="matrix(0.1631 -0.9866 0.9866 0.1631 83.5922 586.0175)" class="st4" width="5.14" height="93.58"/>
						</g>
					</g>
					<g>
						<path class="st4" d="M306.36,299.87l-42.11-6.96l6.97-42.19l42.11,6.96L306.36,299.87z M270.17,288.67l31.96,5.28l5.3-32.05
							l-31.96-5.28L270.17,288.67z"/>
					</g>
					<g>
						<path class="st4" d="M284.7,284.27l-9.77-16.87c-0.71-1.23-0.29-2.8,0.94-3.51c1.23-0.71,2.8-0.29,3.51,0.94l7.26,12.53
							l32.75-17.91c1.25-0.68,2.81-0.22,3.49,1.02c0.68,1.25,0.22,2.81-1.02,3.49L284.7,284.27z"/>
					</g>
					<g>
						<g>
							
								<rect x="399.4" y="216.75" transform="matrix(0.1631 -0.9866 0.9866 0.1631 55.4362 634.9332)" class="st4" width="5.14" height="136.08"/>
						</g>
					</g>
					<g>
						<g>
							
								<rect x="375.08" y="254.83" transform="matrix(0.1631 -0.9866 0.9866 0.1631 18.4804 625.0187)" class="st4" width="5.14" height="93.58"/>
						</g>
					</g>
				</g>
				<g>
					<g>
						
							<rect x="395.55" y="0.02" transform="matrix(0.1631 -0.9866 0.9866 0.1631 231.4254 479.1152)" class="st4" width="5.14" height="206.26"/>
					</g>
				</g>
				<g>
					<g>
						
							<rect x="392.66" y="23.43" transform="matrix(0.1631 -0.9866 0.9866 0.1631 211.7369 490.9083)" class="st4" width="5.14" height="194.44"/>
					</g>
				</g>
			</g>
			<g>
				<g>
					<g>
						<g>
							<path class="st0" d="M584.39,382.94c-6.56,35.32-14.83,82.97-69.75,116.93c-22.65,14.02-65.34,25.64-111.13,24.46
								c-29.19-0.75-71.8-8.12-105.13-26.91c-2.97-1.66-5.86-3.43-8.67-5.29c-0.71-0.42-1.39-0.87-2.08-1.32
								c-50.09-32.63-51.93-107.88-51.93-107.88H584.39z"/>
							<path class="st6" d="M235.69,382.94c-1.34,10.83,68.64,38.82,170.96,37.02c102.32-1.8,177.79-26.43,177.74-37.02
								c-0.1-19.39-74.22-35-175.04-34.4C313.93,349.11,237.86,365.43,235.69,382.94z"/>
							<path class="st7" d="M574.82,382.02c0,1.15-1.25,2.53-3.66,4.02c-0.31,0.19-0.63,0.38-0.98,0.59
								c-6.59,3.75-19.99,8.21-38.59,12.38c-0.14,0.03-0.27,0.06-0.41,0.09c-0.73,0.17-1.48,0.32-2.22,0.48
								c-0.35,0.08-0.71,0.16-1.06,0.23c-0.84,0.19-1.69,0.36-2.56,0.55c-1.22,0.26-2.48,0.5-3.74,0.76
								c-4.85,0.96-9.97,1.89-15.37,2.8c-2.61,0.43-5.29,0.84-8.05,1.25c-0.01,0-0.01,0-0.01,0c-0.29,0.05-0.58,0.11-0.89,0.14
								c-3.43,0.52-6.93,1.02-10.54,1.48c-0.05,0-0.12,0.02-0.17,0.02c-1.58,0.23-3.17,0.42-4.79,0.63c-0.01,0-0.01,0-0.01,0
								c-0.73,0.09-1.47,0.18-2.22,0.27c-0.3,0.04-0.6,0.07-0.9,0.11c-2,0.24-4.03,0.47-6.1,0.69c-1.94,0.21-3.9,0.41-5.87,0.62
								c-2.17,0.22-4.37,0.43-6.58,0.63c-2.01,0.17-4.02,0.35-6.07,0.52c-0.55,0.03-1.12,0.08-1.68,0.12
								c-1.24,0.1-2.49,0.2-3.77,0.29c-1.6,0.12-3.23,0.23-4.85,0.35c-0.33,0.02-0.66,0.05-0.99,0.07
								c-0.47,0.03-0.94,0.06-1.41,0.08c-0.15,0.01-0.3,0.02-0.45,0.03c-0.89,0.05-1.79,0.11-2.68,0.16
								c-1.53,0.09-3.07,0.17-4.62,0.25c-1.78,0.1-3.57,0.19-5.37,0.26c-0.47,0.02-0.94,0.04-1.42,0.06
								c-1.21,0.06-2.41,0.11-3.62,0.15c-0.87,0.03-1.75,0.06-2.62,0.09c-1.85,0.07-3.74,0.13-5.62,0.17
								c-0.37,0.02-0.73,0.02-1.1,0.03c-2,0.05-4.02,0.09-6.04,0.13c-0.3,0.01-0.6,0.01-0.9,0.02h-0.53l-0.48,0.01l-1.1,0.02
								c-0.59,0.01-1.17,0.02-1.75,0.02c-0.34,0-0.69,0.01-1.02,0.01c-1.27,0.01-2.52,0.02-3.78,0.02c-1.82,0-3.64-0.02-5.44-0.03
								l-1.83-0.02c-1.52-0.02-3.01-0.03-4.51-0.06c-0.17,0-0.35-0.01-0.53-0.01c0,0,0,0-0.02,0c-0.63-0.02-1.24-0.04-1.85-0.05
								c-0.53-0.02-1.05-0.03-1.57-0.05c-2.25-0.07-4.49-0.14-6.69-0.22c-0.02,0-0.02,0-0.02,0c-1.4-0.07-2.78-0.13-4.16-0.19
								c-0.19-0.01-0.38-0.02-0.57-0.02c-0.87-0.04-1.73-0.08-2.58-0.13c-0.38-0.02-0.77-0.04-1.15-0.06
								c-0.48-0.02-0.96-0.05-1.45-0.08c-3.1-0.17-6.14-0.38-9.13-0.6c-0.84-0.05-1.69-0.12-2.53-0.19
								c-1.73-0.14-3.44-0.28-5.14-0.43c-1.1-0.11-2.2-0.21-3.29-0.31c-4.14-0.4-8.18-0.83-12.13-1.31
								c-1.25-0.14-2.49-0.29-3.72-0.46c-0.02,0-0.03,0-0.03,0c-6.38-0.81-12.45-1.73-18.21-2.72c-0.39-0.07-0.79-0.14-1.18-0.2
								c-11.51-2-21.7-4.27-30.41-6.62c-1.48-0.39-2.89-0.79-4.28-1.21c0,0,0,0-0.01,0c-7.74-2.25-14.14-4.54-19.04-6.72
								c-2.55-1.13-4.69-2.24-6.41-3.29c-1.64-0.99-2.87-1.94-3.72-2.82c0-0.02-0.02-0.02-0.02-0.02c-0.98-1.03-1.42-1.96-1.3-2.77
								c0.41-2.89,3.63-5.74,9.23-8.46c0,0,0.02,0,0.04-0.02c4.14-2.01,9.58-3.93,16.15-5.74c0,0,0.02,0,0.03-0.02
								c4.41-1.21,9.32-2.37,14.69-3.47c3.46-0.72,7.12-1.41,10.96-2.06c9.97-1.71,21.14-3.23,33.28-4.48
								c1.49-0.16,3-0.31,4.51-0.45c0.96-0.1,1.92-0.19,2.89-0.28c0.75-0.07,1.51-0.14,2.28-0.2c1.82-0.15,3.66-0.32,5.54-0.46h0.01
								c0.95-0.09,1.88-0.16,2.82-0.23c0.02-0.02,0.02,0,0.02,0c0.68-0.05,1.36-0.11,2.04-0.16c0.22-0.02,0.44-0.03,0.66-0.05
								c1.54-0.11,3.11-0.23,4.69-0.34c0.46-0.04,0.93-0.05,1.39-0.08h0.05c0.41-0.04,0.79-0.05,1.21-0.09h0.02
								c1.06-0.07,2.12-0.14,3.17-0.19c0,0,0,0,0.02,0c0.12-0.02,0.22-0.02,0.32-0.02c0.5-0.04,0.98-0.07,1.48-0.09
								c1.27-0.08,2.55-0.15,3.84-0.22c3.72-0.21,7.5-0.38,11.33-0.53l1.24-0.05c1.84-0.07,3.69-0.14,5.54-0.19
								c0.29-0.02,0.6-0.02,0.91-0.03c0.75-0.02,1.54-0.05,2.32-0.08c4.71-0.14,9.48-0.23,14.32-0.29c2.37-0.04,4.75-0.05,7.14-0.07
								c0.75,0,1.51-0.02,2.25,0c2.65-0.02,5.28-0.02,7.88,0c2.89,0.02,5.76,0.04,8.6,0.09c0.33,0,0.66,0.01,0.99,0.02
								c4.37,0.05,8.67,0.14,12.89,0.26c2.32,0.08,4.63,0.14,6.9,0.23c1.31,0.04,2.6,0.08,3.87,0.14c0,0,0.02,0,0.03,0.02
								c0.2,0,0.36,0,0.53,0.02c1.53,0.07,3.03,0.12,4.52,0.19c1.7,0.08,3.41,0.17,5.08,0.26c4.08,0.22,8.07,0.46,11.97,0.73
								c1.07,0.08,2.14,0.15,3.2,0.23c1.3,0.09,2.58,0.19,3.87,0.29c2.23,0.19,4.45,0.38,6.63,0.57c1.24,0.11,2.46,0.23,3.66,0.34
								c0.01,0.01,0.01,0.01,0.01,0c2.34,0.23,4.64,0.45,6.91,0.69c0.53,0.06,1.05,0.11,1.57,0.17c5.02,0.55,9.83,1.15,14.41,1.79
								c0.15,0.02,0.29,0.05,0.43,0.05c1.54,0.22,3.06,0.44,4.54,0.69c3.2,0.49,6.29,1,9.25,1.54c21.31,3.84,36.14,8.77,42.29,14.32
								l0.02,0.02C573.74,378.11,574.82,380.04,574.82,382.02z"/>
						</g>
					</g>
					<g>
						<g>
							<path class="st8" d="M572.28,367.85c-0.03,1.01-0.1,2.03-0.15,3.06c-0.1,1.77-0.26,3.56-0.45,5.37
								c-0.09,0.93-0.21,1.86-0.33,2.79c-0.26,1.93-0.55,3.87-0.88,5.81c-0.1,0.58-0.19,1.17-0.29,1.75
								c-7.02,3.99-21.75,8.8-42.29,13.19c-0.84,0.19-1.69,0.36-2.56,0.55c-1.22,0.26-2.48,0.5-3.73,0.76
								c-4.85,0.96-9.97,1.89-15.37,2.8c-2.61,0.43-5.3,0.84-8.05,1.26c-0.02,0-0.02,0-0.02,0c-0.29,0.05-0.58,0.1-0.89,0.14
								c-3.42,0.52-6.93,1.01-10.54,1.48c-0.05,0-0.12,0.02-0.17,0.02c-2.3,0.33-4.63,0.6-7.02,0.89c-2.3,0.28-4.63,0.55-7,0.79
								c-4.06,0.45-8.22,0.86-12.45,1.26c-2.53-2.37-4.83-4.76-6.9-7.1c-0.62-0.69-1.2-1.36-1.75-2.05
								c-1.51-1.81-2.85-3.58-4.04-5.28c-1.48-2.18-2.68-4.25-3.56-6.17v-0.02c-0.03-0.07-0.07-0.15-0.1-0.22l-3.11-6.98
								c0-0.02,0-0.02,0-0.02l-1.05-2.36l-11.45-25.81l-9.39-21.17c0,0,0.02,0,0-0.02l-1.89-4.25l-1.63-3.66
								c-1.86-4.16-2.6-8.63-2.36-13.24c0-0.24,0.02-0.48,0.05-0.72c0.17-2.6,0.65-5.21,1.46-7.86c0.03-0.17,0.09-0.33,0.15-0.5
								c0-0.03,0-0.07,0.03-0.12c0.12-0.38,0.24-0.77,0.38-1.17c0.17-0.5,0.36-1.01,0.55-1.51s0.4-1.01,0.62-1.51
								c0.22-0.52,0.45-1.01,0.69-1.53c0.22-0.5,0.48-1.01,0.74-1.51c0.09-0.24,0.22-0.5,0.38-0.76c0.14-0.26,0.28-0.5,0.41-0.76
								c0.62-1.13,1.31-2.25,2.01-3.39c0.07-0.1,0.14-0.22,0.22-0.34c0.45-0.69,0.91-1.39,1.39-2.08c0.38-0.53,0.77-1.07,1.17-1.6
								c0.34-0.46,0.69-0.91,1.05-1.36c1.39-1.77,2.91-3.51,4.51-5.23c0.55-0.55,1.08-1.1,1.63-1.65c0.55-0.53,1.1-1.08,1.67-1.62
								c0.22-0.22,0.45-0.45,0.67-0.65c0.34-0.33,0.69-0.64,1.05-0.95c0.36-0.33,0.72-0.64,1.08-0.95c0.79-0.71,1.6-1.38,2.42-2.01
								c0.05-0.07,0.12-0.12,0.19-0.14c0.14-0.15,0.28-0.26,0.41-0.34c0.4-0.34,0.79-0.65,1.2-0.93c0.1-0.1,0.21-0.19,0.31-0.24
								c0.05-0.05,0.1-0.09,0.15-0.1c0.33-0.28,0.65-0.52,1-0.77c0.5-0.38,1-0.74,1.51-1.08c0.33-0.24,0.65-0.46,1-0.69
								c0.4-0.29,0.81-0.57,1.22-0.83c0.84-0.57,1.7-1.12,2.58-1.67c0.17-0.12,0.36-0.24,0.55-0.34c0.57-0.36,1.14-0.71,1.72-1.03
								c0.14-0.09,0.26-0.17,0.4-0.22c0.52-0.31,1.05-0.6,1.58-0.89c0.53-0.31,1.07-0.58,1.62-0.88c0.77-0.41,1.57-0.83,2.36-1.24
								c0.74-0.4,1.5-0.76,2.25-1.12c0.86-0.41,1.74-0.83,2.63-1.22c34.27-15.24,69.87-10.01,79.48,11.64l28.53,64.25
								c0.36,0.81,0.71,1.69,1.01,2.6c0.31,0.93,0.62,1.91,0.89,2.94c0.29,1.03,0.55,2.12,0.77,3.23c0.12,0.57,0.22,1.15,0.34,1.74
								c0.21,1.17,0.41,2.39,0.57,3.65c0.07,0.46,0.12,0.95,0.17,1.43c0.07,0.48,0.12,0.98,0.17,1.48c0.05,0.48,0.1,1,0.14,1.5
								c0.15,1.84,0.28,3.75,0.36,5.69C572.45,361.19,572.43,364.48,572.28,367.85z"/>
							<path class="st9" d="M486.55,406.82c-2.3,0.33-4.63,0.6-7.02,0.89c-2.3,0.28-4.63,0.55-7,0.79
								c-4.06,0.45-8.22,0.86-12.45,1.26c-2.53-2.37-4.83-4.76-6.9-7.1c-0.62-0.69-1.2-1.36-1.75-2.05
								c-1.51-1.81-2.85-3.58-4.04-5.28c-1.48-2.18-2.68-4.25-3.56-6.17v-0.02c-0.03-0.07-0.07-0.15-0.1-0.22l-3.11-6.98
								c0-0.02,0-0.02,0-0.02l-1.05-2.36l-11.45-25.81l-9.39-21.17c0,0,0.02,0,0-0.02l-1.89-4.25l-1.63-3.66
								c-1.86-4.16-2.6-8.63-2.36-13.24c0-0.24,0.02-0.48,0.05-0.72c-0.02-0.09,0-0.15,0.02-0.24c0.02-0.38,0.05-0.77,0.1-1.15
								c0.03-0.4,0.09-0.77,0.15-1.17c0.02-0.17,0.05-0.34,0.07-0.52c0.22-1.32,0.52-2.67,0.88-4.01c0.09-0.22,0.14-0.45,0.21-0.65
								c0.05-0.24,0.12-0.48,0.22-0.74c0.12-0.38,0.24-0.77,0.38-1.17c0.17-0.5,0.36-1.01,0.55-1.51s0.4-1.01,0.62-1.51
								c0.22-0.52,0.45-1.01,0.69-1.53c0.22-0.5,0.48-1.01,0.74-1.51c0.09-0.24,0.22-0.5,0.38-0.76c0.14-0.26,0.28-0.5,0.41-0.76
								c0.33-0.6,0.67-1.19,1.01-1.79c0.33-0.53,0.65-1.07,1-1.6c0.03-0.05,0.07-0.12,0.1-0.19c0.48-0.74,1-1.5,1.51-2.24
								c0.38-0.53,0.77-1.07,1.17-1.6c0.34-0.46,0.69-0.91,1.05-1.36c1.39-1.77,2.91-3.51,4.51-5.23c0.55-0.55,1.08-1.1,1.63-1.65
								c0.55-0.53,1.1-1.08,1.67-1.62c1.67-1.56,3.44-3.1,5.3-4.61c0.03-0.05,0.09-0.09,0.12-0.09c0.69-0.53,1.38-1.07,2.08-1.62
								c1.34-1,2.72-1.98,4.13-2.94c-4.57,4.82-8.25,9.92-10.92,15.08c-2.29,4.42-3.82,8.89-4.49,13.28
								c-0.93,5.86-0.34,11.56,1.98,16.78l6.9,15.51v0.02l2.49,5.62l2.51,5.66v0.02l2.3,5.18l4.52,10.16l1.51,3.41l1.46,3.32
								l3.13,7.05l3.7,8.32c0.58,1.32,1.34,2.72,2.24,4.18c1.19,1.98,2.67,4.04,4.37,6.19c4.23,5.31,9.89,10.99,16.46,16.35
								C483.3,404.34,484.9,405.6,486.55,406.82z"/>
							<path class="st10" d="M570.47,384.87c3.48-20.22,2.02-40.71-2.58-51.08l-28.53-64.26c-9.61-21.65-45.2-26.87-79.48-11.65
								c-3.33,1.48-6.49,3.14-9.54,4.87c0.32,2.83,1.04,5.59,2.2,8.22l28.53,64.26C490.13,355.65,536.46,393.38,570.47,384.87z"/>
							<path class="st9" d="M494.69,336.3c-34.28,15.22-69.87,10.01-79.48-11.65c-9.61-21.65,10.39-51.55,44.67-66.77
								c34.28-15.22,69.87-10.01,79.48,11.65C548.97,291.18,528.97,321.08,494.69,336.3z"/>
							<path class="st11" d="M419.56,322.72c-8.53-19.22,10.42-46.35,42.25-60.48c31.83-14.13,64.66-9.99,73.19,9.22
								c8.53,19.22-10.42,46.35-42.25,60.48C460.92,346.07,428.09,341.93,419.56,322.72z"/>
							<path class="st12" d="M423.92,320.78c-7.34-16.53,10.9-41.34,39.83-54.19c28.93-12.84,59.56-9.73,66.9,6.8
								c7.34,16.53-10.9,41.34-39.83,54.19C461.89,340.43,431.25,337.31,423.92,320.78z"/>
							<path class="st13" d="M477.61,301.51c-4.06,1.8-8.43,0.83-9.77-2.18c-1.34-3.01,0.87-6.91,4.93-8.71
								c4.06-1.8,8.43-0.83,9.77,2.18C483.88,295.81,481.67,299.7,477.61,301.51z"/>
						</g>
						<g>
							<g class="st14">
								<path class="st15" d="M495.99,402.2c0.42,0,0.76-0.34,0.76-0.76c0-0.42-0.34-0.76-0.76-0.76c-0.42,0-0.76,0.34-0.76,0.76
									C495.23,401.86,495.57,402.2,495.99,402.2z"/>
								<path class="st15" d="M496.1,397.18c0.42,0,0.76-0.34,0.76-0.76c0-0.42-0.34-0.76-0.76-0.76c-0.42,0-0.76,0.34-0.76,0.76
									C495.34,396.83,495.68,397.17,496.1,397.18z"/>
								<path class="st15" d="M493,400.37c0.42,0,0.76-0.34,0.76-0.76c0-0.42-0.34-0.76-0.76-0.76c-0.42,0-0.76,0.34-0.76,0.76
									C492.24,400.02,492.58,400.36,493,400.37z"/>
							</g>
						</g>
					</g>
				</g>
				<g>
					<path class="st16" d="M374.63,381.04v0.31l-0.24,3.96l-0.43,7.22l-0.09,1.51v0.02l-0.33,5.31c0,0.64-0.02,1.27-0.05,1.91
						c-0.09,1.63-0.29,3.22-0.62,4.75c-0.21,0.96-0.45,1.91-0.74,2.84c-0.26,0.83-0.55,1.63-0.88,2.42
						c-0.09,0.22-0.17,0.45-0.28,0.67c-1.26-0.05-2.49-0.12-3.73-0.19c-3.59-0.19-7.12-0.43-10.58-0.69
						c-0.84-0.05-1.69-0.12-2.53-0.19c-1.74-0.14-3.44-0.28-5.14-0.43c-1.1-0.1-2.2-0.21-3.28-0.31c-4.14-0.4-8.19-0.83-12.12-1.31
						c-1.26-0.14-2.49-0.29-3.71-0.46c-0.02,0-0.03,0-0.03,0c-6.38-0.81-12.45-1.72-18.21-2.72c-0.4-0.07-0.79-0.14-1.19-0.21
						c-11.5-1.99-21.7-4.26-30.4-6.62c-1.48-0.4-2.89-0.79-4.28-1.2c0,0,0,0-0.02,0c-7.74-2.25-14.14-4.54-19.04-6.72
						c-2.55-1.13-4.69-2.24-6.41-3.28c-1.63-1-2.87-1.94-3.71-2.82c0-0.02-0.02-0.02-0.02-0.02c0.09-0.22,0.17-0.46,0.28-0.69
						c0.14-0.38,0.28-0.74,0.45-1.1c0.15-0.38,0.33-0.74,0.5-1.1c0.17-0.36,0.36-0.72,0.55-1.07c0.19-0.36,0.4-0.71,0.62-1.05
						c0.21-0.34,0.43-0.69,0.67-1.03c1.31-1.89,2.91-3.66,4.87-5.19c0,0,0.02,0,0.03-0.02c0.1-0.09,0.22-0.19,0.34-0.28
						c0.34-0.26,0.72-0.52,1.1-0.77c0.36-0.24,0.76-0.48,1.15-0.72c0.36-0.22,0.74-0.43,1.13-0.64c0.09-0.05,0.19-0.1,0.28-0.14
						c0.29-0.15,0.58-0.29,0.88-0.43c0.55-0.26,1.12-0.5,1.7-0.71c0.43-0.17,0.88-0.33,1.32-0.48c0.48-0.15,0.98-0.31,1.5-0.45
						c0.45-0.12,0.89-0.24,1.34-0.33c0.12-0.03,0.24-0.07,0.36-0.09c0.34-0.09,0.71-0.15,1.08-0.21c0.34-0.09,0.69-0.14,1.05-0.17
						c0.43-0.09,0.88-0.14,1.32-0.19c0.52-0.07,1.05-0.12,1.58-0.15c0,0,0.02,0,0.03-0.02c0.6-0.03,1.2-0.07,1.84-0.09
						c4.83-0.15,9.03-1.44,12.85-3.39c14.98-7.69,24.14-25.71,43.47-26.67c3.65-0.17,7.22,0.05,10.68,0.65
						c1.48,0.28,2.94,0.6,4.37,1c0,0,0,0,0.02,0c3.75,1.05,7.29,2.56,10.56,4.54c0.43,0.24,0.83,0.48,1.24,0.77
						c2.84,1.82,5.45,3.99,7.76,6.5c0.1,0.1,0.19,0.21,0.28,0.31c1,1.1,1.94,2.27,2.82,3.49c0.41,0.57,0.79,1.13,1.15,1.72
						c0.36,0.53,0.69,1.07,1,1.63c0.79,1.32,1.5,2.72,2.12,4.18c0.64,1.43,1.19,2.91,1.65,4.44c0.21,0.64,0.4,1.29,0.55,1.94
						c0.12,0.4,0.22,0.79,0.29,1.2c0.58,2.42,0.96,4.97,1.15,7.64c0.05,0.67,0.09,1.36,0.1,2.05
						C374.62,380.14,374.63,380.57,374.63,381.04z"/>
					<path class="st11" d="M374.63,381.04v0.31c0,1.34-0.09,2.67-0.24,3.96c-0.38,3.04-1.17,5.93-2.36,8.65
						c-0.31,0.67-0.62,1.34-0.96,1.99c-0.34,0.65-0.69,1.29-1.08,1.91c-1.1,1.82-2.41,3.56-3.85,5.21
						c-1.07,1.19-2.22,2.34-3.44,3.42c-1.84,1.65-3.85,3.18-6.02,4.59c-0.84-0.05-1.69-0.12-2.53-0.19
						c-1.74-0.14-3.44-0.28-5.14-0.43c-1.1-0.1-2.2-0.21-3.28-0.31c-4.14-0.4-8.19-0.83-12.12-1.31c-1.26-0.14-2.49-0.29-3.71-0.46
						c-0.02,0-0.03,0-0.03,0c-6.38-0.81-12.45-1.72-18.21-2.72c-0.4-0.07-0.79-0.14-1.19-0.21c-11.5-1.99-21.7-4.26-30.4-6.62
						c-1.48-0.4-2.89-0.79-4.28-1.2c0,0,0,0-0.02,0c-7.74-2.25-14.14-4.54-19.04-6.72c-2.55-1.13-4.69-2.24-6.41-3.28
						c-1.63-1-2.87-1.94-3.71-2.82c0.07-0.24,0.15-0.48,0.26-0.71c0.14-0.38,0.28-0.74,0.45-1.1c0.15-0.38,0.33-0.74,0.5-1.1
						c0.17-0.36,0.36-0.72,0.55-1.07c0.19-0.36,0.4-0.71,0.62-1.05c0.21-0.34,0.43-0.69,0.67-1.03c1.31-1.89,2.91-3.66,4.87-5.19
						c0,0,0.02,0,0.03-0.02c0.1-0.09,0.22-0.19,0.34-0.28c0.34-0.26,0.72-0.52,1.1-0.77c0.36-0.24,0.76-0.48,1.15-0.72
						c0.36-0.22,0.74-0.43,1.13-0.64c0.09-0.05,0.19-0.1,0.28-0.14c0.29-0.15,0.58-0.29,0.88-0.43c0.55-0.26,1.12-0.5,1.7-0.71
						c0.43-0.17,0.88-0.33,1.32-0.48c0.48-0.15,0.98-0.31,1.5-0.45c0.45-0.12,0.89-0.24,1.34-0.33c0.12-0.03,0.24-0.07,0.36-0.09
						c0.34-0.09,0.71-0.15,1.08-0.21c0.34-0.09,0.69-0.14,1.05-0.17c0.43-0.09,0.88-0.14,1.32-0.19c0.52-0.07,1.05-0.12,1.58-0.15
						c0.62-0.05,1.24-0.09,1.87-0.1c4.83-0.15,9.03-1.44,12.85-3.39c14.98-7.69,24.14-25.71,43.47-26.67
						c3.65-0.17,7.22,0.05,10.68,0.65c1.48,0.28,2.94,0.6,4.37,1c0,0,0,0,0.02,0c3.75,1.05,7.29,2.56,10.56,4.54
						c0.43,0.24,0.83,0.48,1.24,0.77c2.84,1.82,5.45,3.99,7.76,6.5c0.1,0.1,0.19,0.21,0.28,0.31c1,1.1,1.94,2.27,2.82,3.49
						c0.41,0.57,0.79,1.13,1.15,1.72c0.36,0.53,0.69,1.07,1,1.63c0.79,1.32,1.5,2.72,2.12,4.18c0.64,1.43,1.19,2.91,1.65,4.44
						c0.21,0.64,0.4,1.29,0.55,1.94c0.12,0.4,0.22,0.79,0.29,1.2c0.58,2.42,0.96,4.97,1.15,7.64c0.05,0.67,0.09,1.36,0.1,2.05
						C374.62,380.14,374.63,380.57,374.63,381.04z"/>
					<path class="st17" d="M370.25,381.28c0,0.46-0.02,0.91-0.03,1.36c-0.02,0.5-0.05,1-0.1,1.48c-0.09,1-0.24,1.98-0.46,2.96
						c-0.55,2.63-1.5,5.16-2.85,7.57c-1.01,1.84-2.27,3.59-3.73,5.3c-0.21,0.21-0.41,0.43-0.62,0.64c-0.03,0.05-0.07,0.09-0.14,0.14
						c-0.24,0.28-0.5,0.53-0.74,0.79c-0.24,0.28-0.52,0.53-0.79,0.81h-0.02c-3.25,3.11-7.22,5.85-11.75,8.15
						c-1.1-0.1-2.2-0.21-3.28-0.31c-4.14-0.4-8.19-0.83-12.12-1.31c-1.26-0.14-2.49-0.29-3.71-0.46c-0.02,0-0.03,0-0.03,0
						c-6.38-0.81-12.45-1.72-18.21-2.72c-0.4-0.07-0.79-0.14-1.19-0.21c-11.5-1.99-21.7-4.26-30.4-6.62
						c-1.48-0.4-2.89-0.79-4.28-1.2c0,0,0,0-0.02,0c-7.74-2.25-14.14-4.54-19.04-6.72c-2.55-1.13-4.69-2.24-6.41-3.28
						c0.71-2.56,1.89-5.12,3.7-7.41c0.28-0.34,0.57-0.69,0.86-1.01c0.29-0.33,0.6-0.64,0.91-0.93c0.33-0.31,0.65-0.6,0.98-0.88
						c0.34-0.28,0.69-0.55,1.05-0.81c3.83-2.8,8.82-4.3,14.91-4.51c9.8-0.33,17.11-4.57,23.65-9.84c2.46-1.94,4.8-4.06,7.12-6.16
						c7.74-6.96,15.05-13.53,25.62-14.07c1.62-0.07,3.25-0.07,4.85,0.03c0.81,0.05,1.62,0.12,2.42,0.22h0.02
						c0.52,0.05,1.01,0.12,1.53,0.21c4.02,0.6,7.86,1.79,11.37,3.51c0.31,0.14,0.62,0.29,0.91,0.46c0.46,0.22,0.91,0.46,1.36,0.72
						c2.84,1.62,5.45,3.59,7.74,5.88c0.07,0.07,0.14,0.14,0.21,0.21c0.22,0.22,0.45,0.45,0.65,0.69c0.36,0.38,0.7,0.77,1.05,1.17
						c0.02,0.03,0.05,0.05,0.07,0.09c1.41,1.65,2.67,3.44,3.73,5.33c1.86,3.2,3.22,6.71,4.09,10.47c0.1,0.46,0.21,0.91,0.29,1.38
						c0.15,0.77,0.29,1.56,0.4,2.36v0.03c0.17,1.19,0.29,2.37,0.36,3.61v0.02C370.21,379.35,370.25,380.3,370.25,381.28z"/>
					<path class="st18" d="M256.58,390.34c0.03,0.19,0.09,0.38,0.14,0.57c-2.55-1.13-4.69-2.24-6.41-3.28
						c0.71-2.56,1.89-5.12,3.7-7.41c0.28-0.34,0.57-0.69,0.86-1.01c0.29-0.33,0.6-0.64,0.91-0.93c0.33-0.31,0.65-0.6,0.98-0.88
						c0.34-0.28,0.69-0.55,1.05-0.81C255.89,381.38,255.79,386.52,256.58,390.34z"/>
					<path class="st18" d="M367.19,393.85c-0.14,0.26-0.28,0.52-0.41,0.76c-1.03,1.84-2.27,3.63-3.75,5.31
						c-0.19,0.22-0.38,0.43-0.58,0.65c-0.03,0.05-0.07,0.09-0.14,0.14c-0.24,0.28-0.5,0.53-0.74,0.79
						c-0.24,0.28-0.52,0.53-0.79,0.81h-0.02c-3.25,3.11-7.22,5.85-11.75,8.15c-1.1-0.1-2.2-0.21-3.28-0.31
						c-4.14-0.4-8.19-0.83-12.12-1.31c5.74-1,11.18-2.49,16.15-4.44c4.32-1.7,8.29-3.73,11.76-6.07c1.82-1.22,3.53-2.53,5.06-3.94
						C366.77,394.23,366.98,394.04,367.19,393.85z"/>
					<path class="st19" d="M349.91,370.7c-0.38,6.29-7.81,10.97-16.6,10.44c-8.79-0.53-15.61-6.05-15.24-12.34
						c0.38-6.29,7.81-10.97,16.6-10.44C343.46,358.88,350.28,364.41,349.91,370.7z"/>
					<path class="st20" d="M343,369.8c-0.23,3.82-4.74,6.66-10.08,6.34c-5.34-0.32-9.48-3.67-9.25-7.49
						c0.23-3.82,4.74-6.66,10.08-6.34C339.09,362.63,343.23,365.98,343,369.8z"/>
					<path class="st21" d="M326.56,371.89c0.23-3.82,4.74-6.66,10.08-6.34c2.28,0.14,4.33,0.83,5.93,1.87
						c-1.18-2.75-4.62-4.87-8.81-5.12c-5.34-0.32-9.85,2.52-10.08,6.34c-0.13,2.19,1.18,4.22,3.32,5.62
						C326.67,373.51,326.51,372.72,326.56,371.89z"/>
					<path class="st18" d="M280.05,398.84c-1.48-0.4-2.89-0.79-4.28-1.2c0,0-0.02-0.02-0.02,0c-0.79-0.55-1.6-1.08-2.42-1.6
						c-3.8-2.53-7.69-4.94-11.42-7.7c2.22,0.71,4.33,1.65,6.41,2.68c2.06,1.03,4.08,2.2,6.02,3.46c1.94,1.29,3.82,2.67,5.55,4.23
						C279.95,398.75,280,398.79,280.05,398.84z"/>
					<path class="st18" d="M311.64,405.66c-0.4-0.07-0.79-0.14-1.19-0.21c-1.96-1.65-3.96-3.25-5.95-4.87l-9.89-7.89
						c-6.59-5.28-13.19-10.56-19.55-16.18c7.24,4.45,14.07,9.48,20.7,14.72c3.3,2.67,6.55,5.38,9.68,8.25
						C307.6,401.45,309.71,403.48,311.64,405.66z"/>
					<path class="st18" d="M297.04,371.88c7.08,4.74,13.75,10.02,20.24,15.51c3.23,2.77,6.41,5.59,9.47,8.54
						c3.07,2.94,6.05,6,8.74,9.31c-3.2-2.8-6.49-5.48-9.71-8.23l-9.71-8.21C309.64,383.28,303.21,377.76,297.04,371.88z"/>
					<path class="st18" d="M341.19,387.5c1.22,0.55,2.32,1.25,3.38,1.99c1.06,0.74,2.05,1.56,3.02,2.41
						c0.95,0.87,1.87,1.77,2.72,2.75c0.85,0.97,1.66,2.01,2.28,3.2c-2.32-1.29-4.32-2.87-6.25-4.57
						C344.46,391.56,342.65,389.74,341.19,387.5z"/>
					<path class="st18" d="M352.6,378.78c1.22,0.55,2.32,1.25,3.38,1.99c1.06,0.74,2.05,1.56,3.02,2.41
						c0.95,0.87,1.87,1.77,2.72,2.75c0.85,0.97,1.66,2.01,2.28,3.2c-2.32-1.29-4.32-2.87-6.25-4.57
						C355.86,382.84,354.05,381.02,352.6,378.78z"/>
					<path class="st18" d="M335.51,349.4c2.29,0.86,4.47,1.97,6.59,3.17c2.12,1.2,4.16,2.52,6.14,3.95c1.95,1.46,3.87,2.98,5.62,4.7
						c1.75,1.71,3.39,3.57,4.65,5.67c-1.85-1.6-3.71-3.1-5.6-4.58c-1.89-1.46-3.82-2.89-5.76-4.3l-5.83-4.24
						C339.37,352.37,337.42,350.93,335.51,349.4z"/>
				</g>
				<g>
					<g>
						<path class="st22" d="M495.03,396.58c-0.15,0.41-0.32,0.84-0.53,1.27c-3.68,1.04-7.58,2.21-11.3,3.45
							c-0.38,0.13-0.75,0.26-1.12,0.38c-0.87,0.3-1.73,0.61-2.58,0.92c-5.58,2.05-10.37,4.28-12.85,6.51
							c-2.17,0.22-4.37,0.43-6.58,0.63c-2.01,0.17-4.02,0.35-6.07,0.52c-0.55,0.03-1.12,0.08-1.68,0.12
							c-1.24,0.1-2.49,0.2-3.77,0.29c-1.6,0.12-3.23,0.23-4.85,0.35c-0.33,0.02-0.66,0.05-0.99,0.07c-0.47,0.03-0.94,0.06-1.41,0.08
							c-0.15,0.01-0.3,0.02-0.45,0.03c-0.89,0.05-1.79,0.11-2.68,0.16c-3.29,0.19-6.62,0.37-9.99,0.51c1.5-1.09,3.23-2.6,5.22-4.78
							c8.6-9.38,12.04-23.11,17.3-33.36c0.48-0.94,0.97-1.85,1.49-2.72l11.06-2.83c0,0-0.81,1.41-1.91,3.54
							c-0.09,0.18-0.19,0.36-0.28,0.55c-0.2,0.38-0.4,0.77-0.6,1.18c-0.02,0.04-0.04,0.06-0.05,0.1l-0.01,0.01
							c-0.05,0.09-0.09,0.17-0.14,0.26c-0.12,0.25-0.24,0.51-0.37,0.76c-0.23,0.47-0.47,0.97-0.71,1.48c0,0,0,0.01-0.01,0
							c-0.6,1.27-1.2,2.61-1.76,3.96c-0.11,0.29-0.23,0.57-0.34,0.84c0,0.01,0,0.02-0.01,0.02c-0.1,0.24-0.19,0.48-0.28,0.72
							c-0.12,0.32-0.24,0.64-0.35,0.96c-0.14,0.37-0.26,0.73-0.38,1.09c-0.18,0.54-0.34,1.06-0.47,1.57c0,0.01-0.01,0.02-0.01,0.02
							c-0.09,0.34-0.17,0.66-0.24,0.98c0,0.01,0,0.02-0.01,0.02c-0.52,2.28-0.51,4.09,0.41,4.89c0.11,0.1,0.24,0.18,0.38,0.23
							c0.04,0.03,0.08,0.05,0.11,0.05c0.03,0.02,0.07,0.03,0.1,0.05c1.95,0.66,4.18-2.13,6.23-5.92c3.56-6.59,6.56-16.26,6.56-16.26
							l3.65,1.43l4.11,1.61c0,0-0.47,0.66-1.23,1.76c-0.09,0.12-0.17,0.25-0.27,0.38c-0.56,0.8-1.24,1.79-2,2.92h-0.01
							c-0.58,0.87-1.22,1.83-1.89,2.85c-1.39,2.13-2.92,4.51-4.33,6.86c-4,6.64-7.25,13.13-5.04,13.73
							c2.43,0.66,11.28-3.1,19.13-6.81c7.08-3.35,13.36-6.68,13.36-6.68S497.53,390.03,495.03,396.58z"/>
						<path class="st23" d="M495.03,396.58c-0.15,0.41-0.32,0.84-0.53,1.27c-3.68,1.04-7.58,2.21-11.3,3.45
							c-0.38,0.13-0.75,0.26-1.12,0.38c-0.87,0.3-1.73,0.61-2.58,0.92c-5.58,2.05-10.37,4.28-12.85,6.51
							c-2.17,0.22-4.37,0.43-6.58,0.63c-2.01,0.17-4.02,0.35-6.07,0.52c-0.55,0.03-1.12,0.08-1.68,0.12
							c-1.24,0.1-2.49,0.2-3.77,0.29c-1.6,0.12-3.23,0.23-4.85,0.35c-0.33,0.02-0.66,0.05-0.99,0.07c-0.47,0.03-0.94,0.06-1.41,0.08
							c-0.15,0.01-0.3,0.02-0.45,0.03c-0.89,0.05-1.79,0.11-2.68,0.16c-3.29,0.19-6.62,0.37-9.99,0.51c1.5-1.09,3.23-2.6,5.22-4.78
							c8.6-9.38,12.04-23.11,17.3-33.36c0.48-0.94,0.97-1.85,1.49-2.72l11.06-2.83c0,0-0.81,1.41-1.91,3.54
							c-0.09,0.18-0.19,0.36-0.28,0.55c-0.2,0.38-0.4,0.77-0.6,1.18c-0.02,0.04-0.04,0.06-0.05,0.1l-0.01,0.01
							c-0.05,0.09-0.09,0.17-0.14,0.26c-0.12,0.25-0.24,0.51-0.37,0.76c-0.23,0.47-0.47,0.97-0.71,1.48c0,0,0,0.01-0.01,0
							c-0.6,1.27-1.2,2.61-1.76,3.96c-0.11,0.29-0.23,0.57-0.34,0.84c0,0.01,0,0.02-0.01,0.02c-0.1,0.24-0.19,0.48-0.28,0.72
							c-0.12,0.32-0.24,0.64-0.35,0.96c-0.14,0.37-0.26,0.73-0.38,1.09c-0.18,0.54-0.34,1.06-0.47,1.57c0,0.01-0.01,0.02-0.01,0.02
							c-0.09,0.34-0.17,0.66-0.24,0.98c0,0.01,0,0.02-0.01,0.02c-0.52,2.28-0.51,4.09,0.41,4.89c0.11,0.1,0.24,0.18,0.38,0.23
							c0.04,0.03,0.08,0.05,0.11,0.05c0.03,0.02,0.07,0.03,0.1,0.05c1.95,0.66,4.18-2.13,6.23-5.92c3.56-6.59,6.56-16.26,6.56-16.26
							l3.65,1.43l4.11,1.61c0,0-0.47,0.66-1.23,1.76c-0.09,0.12-0.17,0.25-0.27,0.38c-0.56,0.8-1.24,1.79-2,2.92h-0.01
							c-0.58,0.87-1.22,1.83-1.89,2.85c-1.39,2.13-2.92,4.51-4.33,6.86c-4,6.64-7.25,13.13-5.04,13.73
							c2.43,0.66,11.28-3.1,19.13-6.81c7.08-3.35,13.36-6.68,13.36-6.68S497.53,390.03,495.03,396.58z"/>
						<path class="st24" d="M476.9,372.32c0,0-0.47,0.66-1.23,1.76c-0.09,0.12-0.17,0.25-0.27,0.38c-0.56,0.8-1.24,1.79-2,2.92
							h-0.01c-0.65,0.54-1.3,1.12-1.95,1.75c-2.24,2.14-4.48,4.76-6.68,7.54c-6.84,8.58-13.37,18.64-18.37,20.47
							c-1.99,0.73-3.84,2.22-5.53,4.07c-0.89,0.05-1.79,0.11-2.68,0.16c-3.29,0.19-6.62,0.37-9.99,0.51c1.5-1.09,3.23-2.6,5.22-4.78
							c8.6-9.38,12.04-23.11,17.3-33.36c0.48-0.94,0.97-1.85,1.49-2.72l11.06-2.83c0,0-0.81,1.41-1.91,3.54
							c-0.09,0.18-0.19,0.36-0.28,0.55c-0.2,0.38-0.4,0.77-0.6,1.18c-0.02,0.04-0.04,0.06-0.05,0.1c-0.01,0.01-0.01,0.01-0.01,0.01
							c-0.05,0.09-0.09,0.17-0.14,0.26c-0.12,0.25-0.24,0.51-0.37,0.76c-0.23,0.47-0.47,0.97-0.71,1.48c0,0,0,0.01-0.01,0
							c-0.6,1.27-1.2,2.61-1.76,3.96c-0.11,0.29-0.23,0.57-0.34,0.84c0,0.01,0,0.02-0.01,0.02c-0.1,0.24-0.19,0.48-0.28,0.72
							c-0.12,0.32-0.24,0.64-0.35,0.96c-0.14,0.37-0.26,0.73-0.38,1.09c-0.17,0.54-0.33,1.06-0.47,1.57c0,0.01-0.01,0.02-0.01,0.02
							c-0.08,0.34-0.17,0.66-0.24,0.98c0,0.01,0,0.02-0.01,0.02c-0.51,2.25-0.5,4.05,0.41,4.86c0,0.02,0,0.02,0.01,0.03
							c0.02,0.22,0.16,0.29,0.38,0.23c0.01,0,0.01,0,0.02,0c0.03,0.02,0.07,0.04,0.1,0.05c0.03,0.02,0.07,0.03,0.1,0.05
							c1.95,0.66,4.18-2.13,6.23-5.92c3.56-6.59,6.56-16.26,6.56-16.26l3.65,1.43L476.9,372.32z"/>
						<path class="st22" d="M531.59,399.01c-0.14,0.03-0.27,0.06-0.41,0.09c-0.73,0.17-1.48,0.32-2.22,0.48
							c-0.35,0.08-0.71,0.16-1.06,0.23c-0.84,0.19-1.69,0.36-2.56,0.55c-1.22,0.26-2.48,0.5-3.74,0.76
							c-4.85,0.96-9.97,1.89-15.37,2.8c-2.61,0.43-5.29,0.84-8.05,1.25c-0.01,0-0.01,0-0.01,0c-0.29,0.05-0.58,0.11-0.89,0.14
							c-3.43,0.52-6.93,1.02-10.54,1.48c-0.05,0-0.12,0.02-0.17,0.02c-1.58,0.23-3.17,0.42-4.79,0.63c-0.01,0-0.01,0-0.01,0
							c-0.73,0.09-1.47,0.18-2.22,0.27c-0.3,0.04-0.6,0.07-0.9,0.11c0.6-0.77,1.3-1.4,2.08-1.89c0.47-0.29,0.96-0.54,1.48-0.74
							c-0.28-1.14-0.32-2.34-0.1-3.5c0.08-0.43,0.2-0.85,0.35-1.27c-0.01,0-0.01-0.01-0.01-0.01c0.07-0.19,0.14-0.37,0.22-0.56
							c0.08-0.18,0.17-0.36,0.26-0.54c0.1-0.18,0.2-0.35,0.31-0.53c0.11-0.17,0.23-0.35,0.35-0.51c2.71-3.61,7.81-4.35,11.45-1.7
							c0.03,0.02,0.07,0.05,0.1,0.07c1.18,0.89,2.02,2.04,2.56,3.3c0.49,0.07,0.99,0.15,1.48,0.24c0.32-1.61,0.97-3.16,2.02-4.55
							c2.7-3.58,7.13-5.06,11.24-4.19c3.59-2.29,8.36-2.27,11.96,0.44c2.02,1.52,3.34,3.64,3.89,5.93c0.23,0.02,0.46,0.06,0.69,0.11
							c0.17,0.03,0.35,0.08,0.53,0.13c0.12,0.03,0.25,0.07,0.37,0.11C530.46,398.37,531.04,398.65,531.59,399.01z"/>
						<path class="st25" d="M531.59,399.01c-0.14,0.03-0.27,0.06-0.41,0.09c-0.73,0.17-1.48,0.32-2.22,0.48
							c-0.35,0.08-0.71,0.16-1.06,0.23c-0.84,0.19-1.69,0.36-2.56,0.55c-1.22,0.26-2.48,0.5-3.74,0.76
							c-4.85,0.96-9.97,1.89-15.37,2.8c-2.61,0.43-5.29,0.84-8.05,1.25c-0.01,0-0.01,0-0.01,0c-0.29,0.05-0.58,0.11-0.89,0.14
							c-3.43,0.52-6.93,1.02-10.54,1.48c-0.05,0-0.12,0.02-0.17,0.02c-1.58,0.23-3.17,0.42-4.79,0.63c-0.01,0-0.01,0-0.01,0
							c-0.73,0.09-1.47,0.18-2.22,0.27c-0.3,0.04-0.6,0.07-0.9,0.11c0.6-0.77,1.3-1.4,2.08-1.89c0.47-0.29,0.96-0.54,1.48-0.74
							c-0.28-1.14-0.32-2.34-0.1-3.5c0.08-0.43,0.2-0.85,0.35-1.27c-0.01,0-0.01-0.01-0.01-0.01c0.07-0.19,0.14-0.37,0.22-0.56
							c0.08-0.18,0.17-0.36,0.26-0.54c0.1-0.18,0.2-0.35,0.31-0.53c0.11-0.17,0.23-0.35,0.35-0.51c2.71-3.61,7.81-4.35,11.45-1.7
							c0.03,0.02,0.07,0.05,0.1,0.07c1.18,0.89,2.02,2.04,2.56,3.3c0.49,0.07,0.99,0.15,1.48,0.24c0.32-1.61,0.97-3.16,2.02-4.55
							c2.7-3.58,7.13-5.06,11.24-4.19c3.59-2.29,8.36-2.27,11.96,0.44c2.02,1.52,3.34,3.64,3.89,5.93c0.23,0.02,0.46,0.06,0.69,0.11
							c0.17,0.03,0.35,0.08,0.53,0.13c0.12,0.03,0.25,0.07,0.37,0.11C530.46,398.37,531.04,398.65,531.59,399.01z"/>
						<path class="st26" d="M531.37,398.89c-0.06,0.07-0.12,0.14-0.19,0.21c-0.73,0.17-1.48,0.32-2.22,0.48
							c-0.35,0.08-0.71,0.16-1.06,0.23c-0.84,0.19-1.69,0.36-2.56,0.55c-1.22,0.26-2.48,0.5-3.74,0.76
							c-4.85,0.96-9.97,1.89-15.37,2.8c-2.61,0.43-5.29,0.84-8.05,1.25c-0.01,0-0.01,0-0.01,0c-0.29,0.05-0.58,0.11-0.89,0.14
							c-3.43,0.52-6.93,1.02-10.54,1.48c-0.05,0-0.12,0.02-0.17,0.02c-1.58,0.23-3.17,0.42-4.79,0.63c-0.01,0-0.01,0-0.01,0v-0.01
							c0.17-1.88,0.84-3.75,2.06-5.36c0.05-0.08,0.11-0.14,0.17-0.2c-0.14-0.08-0.27-0.15-0.4-0.24c-0.14-0.11-0.26-0.21-0.38-0.32
							c-0.29-0.27-0.54-0.57-0.76-0.88c-0.01,0-0.01-0.01-0.01-0.01c0.07-0.19,0.14-0.37,0.22-0.56c0.08-0.18,0.17-0.36,0.26-0.54
							c0.1-0.18,0.2-0.35,0.31-0.53c0.11-0.17,0.23-0.35,0.35-0.51c2.71-3.61,7.81-4.35,11.45-1.7c0.03,0.02,0.07,0.05,0.1,0.07
							c1.18,0.89,2.02,2.04,2.56,3.3c0.49,0.07,0.99,0.15,1.48,0.24c0.32-1.61,0.97-3.16,2.02-4.55c2.7-3.58,7.13-5.06,11.24-4.19
							c3.59-2.29,8.36-2.27,11.96,0.44c2.02,1.52,3.34,3.64,3.89,5.93c0.23,0.02,0.46,0.06,0.69,0.11c0.17,0.03,0.35,0.08,0.53,0.13
							c0.12,0.03,0.25,0.07,0.37,0.11C530.38,398.35,530.88,398.59,531.37,398.89z"/>
						<path class="st23" d="M533.92,378.13c-1.02,1.36-2.42,2.28-3.93,2.74c1.74,3.07,1.61,7-0.64,10c-0.67,0.9-1.49,1.6-2.38,2.17
							c1.16,1.41,1.85,3.13,2,4.89c0.05,0.54,0.05,1.09-0.01,1.64c-0.35,0.08-0.71,0.16-1.06,0.23c-0.84,0.19-1.69,0.36-2.56,0.55
							c-1.22,0.26-2.48,0.5-3.74,0.76c-4.85,0.96-9.97,1.89-15.37,2.8c-2.61,0.43-5.29,0.84-8.05,1.25c-0.01,0-0.01,0-0.01,0
							c-0.29,0.05-0.58,0.11-0.89,0.14c-3.43,0.52-6.93,1.02-10.54,1.48c-0.05,0-0.12,0.02-0.17,0.02
							c-1.58,0.23-3.17,0.42-4.79,0.63c-0.01,0-0.01,0-0.01,0v-0.01c-0.4-0.47-0.75-0.98-1.04-1.51c-0.6-1.04-0.99-2.16-1.2-3.32
							c-0.5-2.77,0.11-5.74,1.94-8.17c0.05-0.08,0.11-0.14,0.17-0.21c-0.12-0.07-0.24-0.14-0.36-0.22c-0.01,0-0.02-0.01-0.03-0.02
							c-1.31-0.99-2.07-2.43-2.26-3.93c-0.6-0.23-1.2-0.52-1.76-0.87c-0.35-0.21-0.71-0.44-1.05-0.69c-0.2-0.14-0.38-0.29-0.56-0.45
							c-0.32-0.27-0.63-0.57-0.92-0.87c-0.11-0.11-0.2-0.23-0.3-0.34c-0.23-0.26-0.44-0.51-0.63-0.78
							c-0.05-0.06-0.09-0.13-0.14-0.19c-0.11-0.14-0.2-0.29-0.29-0.44c-0.11-0.17-0.21-0.33-0.31-0.5
							c-0.02-0.04-0.05-0.07-0.06-0.11c-0.01-0.01-0.02-0.02-0.02-0.03c-0.09-0.15-0.17-0.3-0.24-0.46
							c-0.45-0.9-0.78-1.85-0.99-2.83c-0.06-0.28-0.11-0.55-0.14-0.83c-0.01-0.07-0.02-0.14-0.02-0.2c-0.01-0.07-0.02-0.14-0.02-0.2
							c-0.01-0.02-0.01-0.04-0.01-0.05c-0.04-0.37-0.05-0.74-0.06-1.1c-0.02-2.5,0.76-5.03,2.38-7.18c0.05-0.06,0.1-0.11,0.14-0.17
							c-0.01,0-0.01,0-0.01-0.01c-0.43-0.32-0.82-0.69-1.16-1.07c-0.12-0.13-0.23-0.27-0.34-0.41c-0.1-0.13-0.2-0.26-0.29-0.39
							c-0.09-0.13-0.18-0.26-0.26-0.4c-0.06-0.11-0.12-0.21-0.18-0.32c-0.12-0.21-0.23-0.43-0.32-0.66
							c-0.05-0.11-0.1-0.23-0.14-0.34c-0.05-0.11-0.08-0.23-0.12-0.35c-0.04-0.11-0.08-0.23-0.11-0.35
							c-0.07-0.23-0.12-0.47-0.17-0.71c-0.02-0.11-0.04-0.23-0.05-0.35c-0.11-0.81-0.1-1.64,0.05-2.46
							c0.05-0.32,0.13-0.63,0.23-0.94c0.08-0.26,0.17-0.53,0.28-0.78c0.14-0.32,0.29-0.65,0.48-0.96c0.15-0.26,0.32-0.51,0.5-0.76
							c1.46-1.94,3.62-2.99,5.86-3.14c-0.05-0.28-0.08-0.57-0.11-0.85c-0.01-0.18-0.02-0.36-0.02-0.54
							c-0.01-0.06-0.01-0.12-0.01-0.18c-0.01-0.26,0-0.53,0.02-0.79c0.01-0.11,0.02-0.22,0.02-0.33c0.01-0.09,0.01-0.17,0.03-0.26
							c0.02-0.14,0.04-0.27,0.06-0.41c0.02-0.18,0.06-0.37,0.1-0.55c0.05-0.21,0.1-0.43,0.16-0.64c0.15-0.54,0.35-1.06,0.6-1.58
							c0.05-0.11,0.1-0.21,0.16-0.32c0.05-0.11,0.1-0.2,0.16-0.3c0.05-0.11,0.11-0.2,0.17-0.3c0.19-0.32,0.4-0.63,0.63-0.93
							c0.13-0.17,0.26-0.34,0.4-0.5c0.14-0.16,0.28-0.32,0.42-0.47c0.14-0.15,0.29-0.29,0.44-0.44c0.3-0.28,0.62-0.53,0.94-0.77
							c1.15-0.84,2.43-1.42,3.78-1.73c0.19-0.05,0.38-0.08,0.58-0.11c0.19-0.03,0.38-0.06,0.58-0.08c0.55-0.07,1.1-0.08,1.64-0.06
							c0.16,0.01,0.32,0.02,0.47,0.03c0.25,0.02,0.49,0.05,0.74,0.08c0.12,0.02,0.24,0.04,0.36,0.07c0.01,0,0.02,0,0.02,0
							c0.08,0.02,0.17,0.03,0.26,0.05c0.05,0.01,0.08,0.02,0.11,0.02c0.05,0.02,0.11,0.03,0.16,0.05c0.14,0.03,0.29,0.07,0.42,0.11
							c0.68,0.2,1.33,0.47,1.97,0.81c0.22,0.11,0.43,0.23,0.64,0.37c0.25-0.56,0.54-1.09,0.92-1.6c0.15-0.2,0.31-0.39,0.47-0.57
							c0.17-0.18,0.34-0.35,0.51-0.51c2.8-2.58,7.11-2.86,10.25-0.5c0.63,0.47,1.14,1.04,1.59,1.64c2.93-3.62,8.21-4.31,11.97-1.48
							c2.79,2.1,3.93,5.55,3.25,8.75c0.98,0.29,1.93,0.73,2.8,1.38c2.58,1.94,3.78,5,3.47,7.99c-0.13,1.28-0.53,2.55-1.24,3.72
							c1.48,0.08,2.96,0.59,4.24,1.55C535.81,369.8,536.51,374.69,533.92,378.13z"/>
						<path class="st25" d="M495.05,345.24c-0.38,0.5-0.67,1.04-0.92,1.6c-4.56-2.87-10.64-1.82-13.94,2.56
							c-1.79,2.38-2.41,5.27-1.96,7.99c-2.24,0.16-4.4,1.21-5.86,3.14c-2.67,3.54-1.96,8.57,1.58,11.24c0,0,0.01,0,0.01,0.01
							c-0.05,0.06-0.1,0.11-0.14,0.17c-3.93,5.21-2.88,12.62,2.33,16.55c0.68,0.51,1.4,0.9,2.14,1.24c0.85-0.51,1.62-1.18,2.25-2.02
							c0.7-0.93,1.15-1.96,1.4-3.02c4.12,2.3,9.39,1.3,12.3-2.57c1.7-2.26,2.22-5.03,1.71-7.6c1.12-0.49,2.15-1.24,2.94-2.28
							c2.42-3.21,1.8-7.75-1.35-10.21c0.77-0.46,1.47-1.07,2.04-1.83c2.37-3.15,1.74-7.62-1.41-9.99c-0.25-0.19-0.52-0.32-0.78-0.47
							c0.07-0.08,0.14-0.16,0.2-0.24c1.63-2.16,2.33-4.74,2.17-7.24C497.95,342.65,496.26,343.64,495.05,345.24z"/>
					</g>
					<path class="st23" d="M473.77,332.05c-0.58-1.15-1.4-2.21-2.5-3.04c-3.84-2.89-9.29-2.12-12.18,1.72
						c-0.53,0.7-0.89,1.46-1.18,2.24c-2.92-1.88-6.83-1.25-8.95,1.57c-1.39,1.84-1.68,4.17-0.98,6.2c-0.46-0.5-0.96-0.97-1.52-1.39
						c-5.11-3.85-12.38-2.83-16.23,2.29c-3.85,5.11-2.83,12.38,2.29,16.23c1.01,0.76,2.11,1.33,3.25,1.71
						c-1.01,3.24,0.02,6.89,2.88,9.04c2.77,2.09,6.43,2.15,9.23,0.46c0.56,2.01,1.72,3.88,3.52,5.23c2.56,1.93,5.75,2.38,8.62,1.55
						c-1.45,3.33-0.52,7.33,2.51,9.61c3.54,2.67,8.57,1.96,11.24-1.58c0.7-0.93,1.15-1.96,1.4-3.02c4.12,2.3,9.39,1.3,12.3-2.57
						c1.7-2.26,2.22-5.03,1.71-7.6c1.12-0.49,2.15-1.24,2.94-2.28c2.42-3.21,1.8-7.75-1.35-10.21c0.77-0.46,1.47-1.07,2.04-1.83
						c2.37-3.15,1.74-7.62-1.41-9.99c-0.25-0.19-0.52-0.32-0.78-0.47c0.07-0.08,0.14-0.16,0.2-0.24c3.63-4.82,2.66-11.67-2.16-15.3
						C484.01,326.88,477.49,327.67,473.77,332.05z"/>
					<path class="st27" d="M474.89,330.93c-0.39,0.35-0.77,0.71-1.11,1.12c-0.58-1.15-1.4-2.21-2.5-3.04
						c-3.84-2.89-9.29-2.12-12.18,1.72c-0.53,0.7-0.89,1.46-1.18,2.24c-2.92-1.88-6.83-1.25-8.95,1.57
						c-1.39,1.84-1.68,4.17-0.98,6.2c-0.46-0.5-0.96-0.97-1.52-1.39c-5.11-3.85-12.38-2.83-16.23,2.29
						c-3.85,5.11-2.83,12.38,2.29,16.23c1.01,0.76,2.11,1.33,3.25,1.71c-1.01,3.24,0.02,6.89,2.88,9.04
						c2.77,2.09,6.43,2.15,9.23,0.46c0.56,2.01,1.72,3.88,3.52,5.23c0.24,0.18,0.5,0.34,0.75,0.5c0.48-0.86,0.83-1.76,1.05-2.68
						c5.11,2.85,11.64,1.61,15.25-3.19c2.11-2.81,2.75-6.23,2.13-9.43c1.39-0.61,2.67-1.53,3.65-2.83c3-3.98,2.23-9.6-1.68-12.66
						c0.96-0.57,1.82-1.32,2.53-2.27C477.55,338.46,477.35,334.01,474.89,330.93z"/>
				</g>
				<g>
					<g>
						<g>
							<path class="st25" d="M324.53,313.66c0,0-20.76,20.41-34.35,10.08c-13.59-10.33-30.79,2.07-30.39-10.46
								c0.4-12.54-34.56-3.44-32.05-21.38C230.24,273.96,312.04,284.22,324.53,313.66z"/>
							<g>
								<g>
									<path class="st23" d="M231.83,286.58c-2.4,1.37-3.9,3.13-4.2,5.32c-2.51,17.94,32.46,8.84,32.05,21.38
										c-0.4,12.54,16.81,0.14,30.39,10.46c11.81,8.98,29.03-5.26,33.34-9.14C296.49,297.2,243.18,302.86,231.83,286.58z"/>
								</g>
							</g>
							<g>
								<path class="st28" d="M333.97,322.05c-0.29,0-0.58-0.07-0.84-0.23c-0.47-0.28-47.12-27.5-77.01-29.13
									c-0.9-0.05-1.6-0.82-1.55-1.73c0.05-0.9,0.82-1.6,1.73-1.55c30.68,1.67,76.55,28.43,78.49,29.57
									c0.78,0.46,1.04,1.46,0.58,2.25C335.07,321.76,334.53,322.04,333.97,322.05z"/>
							</g>
							<g>
								<g>
									<g>
										<path class="st23" d="M333.97,322.05c-0.29,0-0.58-0.07-0.84-0.23c-0.47-0.28-47.12-27.5-77.01-29.13
											c-0.9-0.05-1.6-0.82-1.55-1.73c0.05-0.9,0.82-1.6,1.73-1.55c30.68,1.67,76.55,28.43,78.49,29.57
											c0.78,0.46,1.04,1.46,0.58,2.25C335.07,321.76,334.53,322.04,333.97,322.05z"/>
									</g>
								</g>
							</g>
						</g>
						<g>
							<path class="st23" d="M327.62,310.78c0,0,22.44-18.55,13.56-33.13c-8.88-14.58,5.23-30.42-7.28-31.31
								c-12.51-0.89,0.14-34.73-17.96-34.08C297.83,212.9,299.62,295.32,327.62,310.78z"/>
							<path class="st29" d="M322.75,214.59c-7.78,19.26-3.94,68.3,14.1,86.31c4.91-6.61,9.05-15.49,4.33-23.25
								c-8.88-14.58,5.23-30.42-7.28-31.31C323.51,245.6,330.45,222.15,322.75,214.59z"/>
							<g>
								<path class="st28" d="M333.36,322.6c-0.63,0.01-1.23-0.35-1.51-0.96c-0.93-2.05-22.83-50.43-21.34-81.12
									c0.04-0.9,0.81-1.61,1.72-1.56c0.9,0.04,1.6,0.81,1.56,1.72c-1.46,29.9,20.82,79.1,21.04,79.59
									c0.38,0.82,0.01,1.8-0.81,2.17C333.81,322.55,333.58,322.6,333.36,322.6z"/>
							</g>
							<g>
								<g>
									<path class="st25" d="M333.47,322.6c-0.63,0.01-1.23-0.35-1.51-0.96c-0.93-2.04-22.83-50.43-21.34-81.12
										c0.04-0.9,0.81-1.61,1.72-1.56c0.9,0.04,1.6,0.81,1.56,1.72c-1.46,29.9,20.82,79.1,21.04,79.59
										c0.38,0.82,0.01,1.8-0.81,2.17C333.92,322.55,333.69,322.6,333.47,322.6z"/>
								</g>
							</g>
						</g>
					</g>
					<path class="st25" d="M338.25,321.34l-4.3,3.88l-2.7-3c-0.48-0.54-0.44-1.37,0.1-1.85l2.35-2.12c0.54-0.48,1.37-0.44,1.85,0.1
						L338.25,321.34z"/>
					<path class="st25" d="M341.82,324.16l-5.54,5l-3.48-3.86c-0.63-0.69-0.57-1.76,0.12-2.39l3.03-2.74
						c0.69-0.62,1.76-0.57,2.39,0.12L341.82,324.16z"/>
					<path class="st2" d="M433.55,411.62c-1.78,0.1-3.57,0.19-5.37,0.26c-0.47,0.02-0.94,0.04-1.42,0.06
						c-1.21,0.06-2.41,0.11-3.62,0.15c-0.87,0.03-1.75,0.06-2.62,0.09c-1.85,0.07-3.74,0.13-5.62,0.17
						c-0.37,0.02-0.73,0.02-1.1,0.03c-2,0.05-4.02,0.09-6.04,0.13c-0.3,0.01-0.6,0.01-0.9,0.02h-0.53l-0.48,0.01l-1.1,0.02
						c-0.59,0.01-1.17,0.02-1.75,0.02c-0.34,0-0.69,0.01-1.02,0.01c-1.27,0.01-2.52,0.02-3.78,0.02c-1.82,0-3.64-0.02-5.44-0.03
						l-1.83-0.02c-1.52-0.02-3.01-0.03-4.51-0.06c-9.96-6.74-20.36-14.48-30.5-23.19c-14.57-12.52-22.5-22.91-26.26-31.54
						c-2.46-5.64-3.14-10.52-2.72-14.76c0.02-0.23,0.05-0.47,0.08-0.69c0-0.09,0.02-0.18,0.03-0.26c0.04-0.26,0.08-0.53,0.12-0.78
						c0.06-0.38,0.14-0.76,0.23-1.13c0.07-0.32,0.15-0.65,0.23-0.96c0.08-0.29,0.17-0.59,0.26-0.87c0.04-0.13,0.08-0.26,0.12-0.38
						c0.17-0.5,0.34-0.99,0.53-1.46c0.01-0.01,0.01-0.02,0.01-0.02c0.12-0.29,0.24-0.58,0.37-0.87c0.28-0.64,0.59-1.26,0.9-1.85
						c0.26-0.47,0.52-0.93,0.79-1.36c0.15-0.26,0.31-0.5,0.47-0.75c0.17-0.24,0.32-0.47,0.49-0.72v-0.01
						c0.93-1.36,1.92-2.59,2.91-3.72c0.78-0.89,1.54-1.7,2.28-2.46l0.59-0.53c0.83-0.65,1.73-1.33,2.68-2.01
						c10.84-7.66,29.96-15,59.61,27.73c0.89,1.28,1.77,2.57,2.64,3.86C416.03,374.27,426.42,395.1,433.55,411.62z"/>
					<path class="st30" d="M382.7,399.74c6.59,4.7,13.08,8.99,19.25,12.84c-1.27,0.01-2.52,0.02-3.78,0.02
						c-1.82,0-3.64-0.02-5.44-0.03l-1.83-0.02c-1.52-0.02-3.01-0.03-4.51-0.06c-9.96-6.74-20.36-14.48-30.5-23.19
						c-14.57-12.52-22.5-22.91-26.26-31.54c-2.46-5.64-3.14-10.52-2.72-14.76c0.02-0.23,0.05-0.47,0.08-0.69
						c0-0.09,0.02-0.18,0.03-0.26c0.04-0.26,0.08-0.53,0.12-0.78c0.06-0.38,0.14-0.76,0.23-1.13c0.07-0.32,0.15-0.65,0.23-0.96
						c0.08-0.29,0.17-0.59,0.26-0.87c0.04-0.13,0.08-0.26,0.12-0.38c0.17-0.5,0.34-0.99,0.53-1.46c0.01-0.01,0.01-0.02,0.01-0.02
						c0.12-0.29,0.24-0.58,0.37-0.87c0.28-0.64,0.59-1.26,0.9-1.85c0.26-0.47,0.52-0.93,0.79-1.36c0.15-0.26,0.31-0.5,0.47-0.75
						c0.17-0.24,0.32-0.48,0.49-0.72c-1.76,5.83-1.54,13.11,3.23,22.25c0.05,0.1,0.1,0.19,0.15,0.28c0.62,1.18,1.32,2.39,2.11,3.63
						c4.49,7.13,11.67,15.31,22.58,24.67c0.6,0.51,1.19,1.02,1.79,1.52c0.06,0.05,0.13,0.11,0.19,0.16
						c6.75,5.7,13.6,10.98,20.35,15.81C382.19,399.38,382.44,399.56,382.7,399.74z"/>
					<path class="st31" d="M333.87,354.59c3.71-6.33,8.79-11.75,14.17-16.68c5.46-4.85,11.37-9.35,18.05-12.38
						c-2.99,2.1-5.83,4.35-8.64,6.62c-2.79,2.3-5.54,4.65-8.22,7.08c-2.69,2.41-5.31,4.9-7.89,7.44
						C338.79,349.24,336.26,351.83,333.87,354.59z"/>
					<path class="st31" d="M349.08,356.89c2.32-3.28,5.08-6.22,7.91-9.06c3.11-2.53,6.33-4.97,9.83-6.94
						c-2.65,3.1-5.59,5.72-8.63,8.26C355.34,351.91,352.43,354.57,349.08,356.89z"/>
					<path class="st31" d="M375.76,350.81c0.9-1.55,2.17-2.64,3.54-3.59c1.39-0.9,2.91-1.66,4.69-1.85
						c-1.08,1.42-2.36,2.41-3.7,3.34C378.91,349.59,377.5,350.4,375.76,350.81z"/>
					<path class="st31" d="M351.76,374.43c0.38-1.75,1.29-3.18,2.33-4.47c1.08-1.26,2.3-2.41,3.93-3.15
						c-0.59,1.69-1.54,3.01-2.56,4.28C354.4,372.33,353.29,373.5,351.76,374.43z"/>
					<path class="st31" d="M360.71,384.35c1.85-3.15,4.02-6.14,6.5-8.83c2.5-2.67,5.08-5.27,7.68-7.85c2.84-2.32,5.69-4.62,8.6-6.83
						c2.93-2.18,6.13-4.04,9.45-5.55c-2.98,2.11-5.85,4.31-8.61,6.66c-2.71,2.41-5.47,4.74-8.25,7.04
						c-2.58,2.53-5.18,5.03-7.86,7.48C365.6,378.97,363.12,381.61,360.71,384.35z"/>
					<path class="st31" d="M375.92,386.65c2.32-3.28,5.08-6.22,7.91-9.06c3.11-2.53,6.33-4.97,9.83-6.94
						c-2.65,3.1-5.59,5.72-8.63,8.26C382.19,381.68,379.27,384.33,375.92,386.65z"/>
					<path class="st31" d="M378.61,404.2c1.85-3.15,4.02-6.14,6.5-8.83c2.5-2.67,5.08-5.27,7.68-7.85c2.84-2.32,5.69-4.62,8.6-6.83
						c2.93-2.18,6.13-4.04,9.45-5.55c-2.98,2.11-5.85,4.31-8.61,6.66c-2.71,2.41-5.47,4.74-8.25,7.04
						c-2.58,2.53-5.18,5.03-7.86,7.48C383.5,398.82,381.01,401.45,378.61,404.2z"/>
					<path class="st31" d="M420.5,400.43c-2.65,3.1-5.59,5.72-8.63,8.26c-1.35,1.3-2.71,2.59-4.12,3.83c-0.3,0.01-0.6,0.01-0.9,0.02
						h-0.53l-0.48,0.01c1.54-1.79,3.18-3.5,4.85-5.18C413.79,404.83,417,402.39,420.5,400.43z"/>
				</g>
				<g>
					<path class="st32" d="M443.82,397.37v10.62c0,1.02-0.04,2.03-0.11,3.04c-0.33,0.02-0.66,0.05-0.99,0.07
						c-0.47,0.03-0.94,0.06-1.41,0.08c-1.04,0.07-2.09,0.13-3.14,0.19c-3.75,0.22-7.56,0.41-11.41,0.57
						c-1.21,0.06-2.41,0.11-3.62,0.15c-0.87,0.03-1.75,0.06-2.62,0.09c-1.85,0.07-3.74,0.13-5.62,0.17
						c-0.37,0.02-0.73,0.02-1.1,0.03c-2.31,0.05-4.61,0.11-6.95,0.14h-0.53l-1.58,0.02c-0.59,0.01-1.17,0.02-1.75,0.02
						c-1.61,0.02-3.2,0.02-4.8,0.02c-1.82,0-3.64-0.02-5.44-0.03l-1.83-0.02c-1.7-0.02-3.37-0.04-5.04-0.07c0,0,0,0-0.02,0
						c-0.63-0.02-1.24-0.04-1.85-0.05c-0.53-0.02-1.05-0.03-1.57-0.05c-2.25-0.07-4.49-0.14-6.69-0.22c-0.02,0-0.02,0-0.02,0
						c-1.4-0.07-2.78-0.13-4.16-0.19c-0.19-0.01-0.38-0.02-0.57-0.02c-0.87-0.04-1.73-0.08-2.58-0.13
						c-0.38-0.02-0.77-0.04-1.15-0.06c-0.48-0.02-0.96-0.05-1.45-0.08c-0.11-1.21-0.17-2.45-0.17-3.69v-10.62
						c0-21.59,17.51-39.1,39.1-39.1C426.32,358.28,443.82,375.78,443.82,397.37z"/>
					<g>
						<path class="st33" d="M443.82,397.37v10.62c0,1.02-0.04,2.03-0.11,3.04c-0.33,0.02-0.66,0.05-0.99,0.07
							c-0.47,0.03-0.94,0.06-1.41,0.08c-1.04,0.07-2.09,0.13-3.14,0.19c-3.75,0.22-7.56,0.41-11.41,0.57
							c-1.21,0.06-2.41,0.11-3.62,0.15c-0.87,0.03-1.75,0.06-2.62,0.09c-1.85,0.07-3.74,0.13-5.62,0.17
							c-0.37,0.02-0.73,0.02-1.1,0.03c-2.31,0.05-4.61,0.11-6.95,0.14h-0.53l-1.58,0.02c-0.59,0.01-1.17,0.02-1.75,0.02
							c-1.61,0.02-3.2,0.02-4.8,0.02c-1.82,0-3.64-0.02-5.44-0.03l-1.83-0.02c-1.7-0.02-3.37-0.04-5.04-0.07c0,0,0,0-0.02,0
							c-0.63-0.02-1.24-0.04-1.85-0.05c-0.53-0.02-1.05-0.03-1.57-0.05c-2.25-0.07-4.49-0.14-6.69-0.22c-0.02,0-0.02,0-0.02,0
							c-1.4-0.07-2.78-0.13-4.16-0.19c-0.19-0.01-0.38-0.02-0.57-0.02c-0.87-0.04-1.73-0.08-2.58-0.13
							c-0.38-0.02-0.77-0.04-1.15-0.06c-0.48-0.02-0.96-0.05-1.45-0.08c-0.11-1.21-0.17-2.45-0.17-3.69v-10.62
							c0-21.59,17.51-39.1,39.1-39.1C426.32,358.28,443.82,375.78,443.82,397.37z"/>
						<path class="st34" d="M443.82,397.37c0,4.86-0.89,9.51-2.52,13.81c-1.04,0.07-2.09,0.13-3.14,0.19
							c-3.75,0.22-7.56,0.41-11.41,0.57c-1.21,0.06-2.41,0.11-3.62,0.15c-0.87,0.03-1.75,0.06-2.62,0.09
							c-1.85,0.07-3.74,0.13-5.62,0.17c-0.37,0.02-0.73,0.02-1.1,0.03c-2.31,0.05-4.61,0.11-6.95,0.14h-0.53l-1.58,0.02
							c-0.59,0.01-1.17,0.02-1.75,0.02c-1.61,0.02-3.2,0.02-4.8,0.02c-1.82,0-3.64-0.02-5.44-0.03l-1.83-0.02
							c-1.7-0.02-3.37-0.04-5.04-0.07c0,0,0,0-0.02,0c-0.63-0.02-1.24-0.04-1.85-0.05c-0.53-0.02-1.05-0.03-1.57-0.05
							c-2.25-0.07-4.49-0.14-6.69-0.22c-0.02,0-0.02,0-0.02,0c-1.4-0.07-2.78-0.13-4.16-0.19c-0.19-0.01-0.38-0.02-0.57-0.02
							c-0.87-0.04-1.73-0.08-2.58-0.13c-1.79-4.47-2.77-9.35-2.77-14.45c0-21.59,17.51-39.1,39.1-39.1
							C426.32,358.28,443.82,375.78,443.82,397.37z"/>
						<path class="st23" d="M440.98,397.37c0,4.96-1,9.68-2.81,13.99c-3.75,0.22-7.56,0.41-11.41,0.57
							c-1.21,0.06-2.41,0.11-3.62,0.15c-0.87,0.03-1.75,0.06-2.62,0.09c-1.85,0.07-3.74,0.13-5.62,0.17
							c-0.37,0.02-0.73,0.02-1.1,0.03c-2.31,0.05-4.61,0.11-6.95,0.14h-0.53l-1.58,0.02c-0.59,0.01-1.17,0.02-1.75,0.02
							c-1.61,0.02-3.2,0.02-4.8,0.02c-1.82,0-3.64-0.02-5.44-0.03l-1.83-0.02c-1.7-0.02-3.37-0.04-5.04-0.07c0,0,0,0-0.02,0
							c-0.63-0.02-1.24-0.04-1.85-0.05c-0.53-0.02-1.05-0.03-1.57-0.05c-2.25-0.07-4.49-0.14-6.69-0.22c-0.02,0-0.02,0-0.02,0
							c-1.4-0.07-2.78-0.13-4.16-0.19c-1.97-4.47-3.07-9.41-3.07-14.6c0-19.99,16.26-36.25,36.25-36.25
							C424.72,361.13,440.98,377.38,440.98,397.37z"/>
						<g>
							<path class="st35" d="M409.15,375.57c0,4.19-3.55,7.58-3.55,7.58s-3.55-3.39-3.55-7.58c0-4.19,1.59-7.58,3.55-7.58
								C407.56,367.99,409.15,371.39,409.15,375.57z"/>
							<path class="st35" d="M423.27,385.08c-2.96,2.96-7.87,2.85-7.87,2.85s-0.11-4.91,2.85-7.87c2.96-2.96,6.49-4.24,7.87-2.85
								C427.5,378.6,426.23,382.12,423.27,385.08z"/>
							<path class="st35" d="M426.53,401.79c-4.19,0-7.58-3.55-7.58-3.55s3.39-3.55,7.58-3.55c4.19,0,7.58,1.59,7.58,3.55
								C434.11,400.2,430.71,401.79,426.53,401.79z"/>
							<path class="st35" d="M423.13,412.09c-0.87,0.03-1.75,0.06-2.62,0.09c-1.85,0.07-3.74,0.13-5.62,0.17
								c-0.77-2.25-0.72-4.32-0.72-4.32s4.91-0.11,7.88,2.85C422.43,411.28,422.8,411.68,423.13,412.09z"/>
							<path class="st35" d="M404.72,412.55c-0.59,0.01-1.17,0.02-1.75,0.02c0.51-0.63,0.88-0.99,0.88-0.99
								S404.23,411.93,404.72,412.55z"/>
							<path class="st35" d="M392.73,412.57l-1.83-0.02c-1.7-0.02-3.37-0.04-5.04-0.07c0,0,0,0-0.02,0
								c-0.63-0.02-1.24-0.04-1.85-0.05c0.56-0.93,1.3-1.88,2.19-2.77c2.96-2.96,7.88-2.85,7.88-2.85S394.13,409.83,392.73,412.57z"
								/>
							<path class="st35" d="M382.93,392.95c4.19,0,7.58,3.55,7.58,3.55s-3.39,3.55-7.58,3.55c-4.19,0-7.58-1.59-7.58-3.55
								C375.35,394.54,378.75,392.95,382.93,392.95z"/>
							<path class="st35" d="M392.44,378.83c2.96,2.96,2.85,7.87,2.85,7.87s-4.91,0.11-7.87-2.85c-2.96-2.96-4.24-6.49-2.85-7.87
								C385.96,374.59,389.48,375.87,392.44,378.83z"/>
						</g>
					</g>
				</g>
			</g>
		</g>
		<g class="st36">
			
				<ellipse transform="matrix(0.8938 -0.4485 0.4485 0.8938 -39.0743 148.6313)" class="st37" cx="294.29" cy="156.82" rx="79.14" ry="79.14"/>
		</g>
		<g>
			<g>
				<g>
					<g>
						<g>
							<polygon class="st38" points="210.51,494.93 187.18,435.6 209.22,430.66 225.98,482.91 							"/>
						</g>
						<g>
							<g>
								<g>
									<g>
										<defs>
											<path id="SVGID_5_" d="M206.47,485.46c0,0,16.53,0.71,17.13-12.33l47.3,3.99l-61.32,29.48L206.47,485.46z"/>
										</defs>
										<use xlink:href="#SVGID_5_"  style="overflow:visible;fill:#081927;"/>
										<clipPath id="SVGID_1_">
											<use xlink:href="#SVGID_5_"  style="overflow:visible;"/>
										</clipPath>
									</g>
									<g>
										<g>
											
												<rect x="207.57" y="491.54" transform="matrix(0.9012 -0.4333 0.4333 0.9012 -190.485 153.5322)" class="st0" width="68.04" height="6.25"/>
										</g>
									</g>
								</g>
							</g>
						</g>
					</g>
					<g>
						<g>
							<polygon class="st3" points="151.32,228.41 173.99,311.1 230.39,458.94 191.75,475.5 103.25,256.43 							"/>
						</g>
					</g>
				</g>
				<g>
					<g>
						<g>
							<polygon class="st38" points="27.7,470.75 63.32,417.88 79.9,433.23 46.37,476.67 							"/>
						</g>
						<g>
							<g>
								<g>
									<g>
										<defs>
											<path id="SVGID_7_" d="M33.21,462.05c0,0,8.8,14.02,19.87,7.11l23.54,41.22l-59.06-33.78L33.21,462.05z"/>
										</defs>
										<use xlink:href="#SVGID_7_"  style="overflow:visible;fill:#081927;"/>
										<clipPath id="SVGID_2_">
											<use xlink:href="#SVGID_7_"  style="overflow:visible;"/>
										</clipPath>
									</g>
									<g>
										<g>
											
												<rect x="42.42" y="462.18" transform="matrix(0.4965 -0.8681 0.8681 0.4965 -407.7923 289.3815)" class="st0" width="6.25" height="68.04"/>
										</g>
									</g>
								</g>
							</g>
						</g>
					</g>
					<g>
						<g>
							<g>
								<g>
									<path class="st3" d="M151.85,248.55L125.05,358.1c-3.09,13.78-8.12,22.58-14.94,34.94l-43.28,72.78l-35.96-22.05
										l45.02-80.06l15.77-87.76L151.85,248.55z"/>
								</g>
							</g>
						</g>
						<g>
							<path class="st39" d="M132.32,328.76c-0.03,0-0.06,0-0.09-0.01c-0.19-0.05-0.31-0.24-0.26-0.44l8.84-36.15
								c0.02-0.08,0.06-0.14,0.12-0.19l9.19-7.4c0.15-0.12,0.38-0.1,0.51,0.06c0.12,0.15,0.1,0.38-0.06,0.51l-9.09,7.32l-8.81,36.03
								C132.63,328.65,132.48,328.76,132.32,328.76z"/>
						</g>
					</g>
				</g>
				<g>
					<g>
						<g>
							<g>
								<path class="st0" d="M133.61,150.26c0,0,16.43,40.77,55.35,77.57c6.21,5.87,15.93,5.91,22.36,0.28l0,0
									c6.43-5.62,3.31-15.18-1.57-22.18l-43.82-64.07L133.61,150.26z"/>
							</g>
						</g>
					</g>
				</g>
				<g>
					<g>
						<g>
							<path class="st2" d="M153.71,140.01c0,0,14.69,63.09,0.14,105.64s-43.57-6.54-43.57-6.54l23.04-108.42L153.71,140.01z"/>
						</g>
					</g>
				</g>
				<g>
					<g>
						<g>
							<path class="st0" d="M133.31,130.69c0,0-19.58-5.67-34.44,7.65l-3.5,25.22l-0.69,58.27L47.18,338.8h33.57
								c11.56,0,21.88-7.22,25.8-18.09C119.42,285.01,144.59,202.67,133.31,130.69z"/>
						</g>
					</g>
					<g>
						<path class="st40" d="M129.84,197.43c-0.27,0-0.53-0.17-0.62-0.45l-12.61-38.6c-0.08-0.24-0.01-0.51,0.18-0.68l9.71-8.89
							l-9.15-9.26c-0.14-0.14-0.21-0.35-0.18-0.55c0.03-0.2,0.15-0.38,0.33-0.48l14.57-7.9c0.32-0.17,0.71-0.05,0.88,0.26
							c0.17,0.32,0.05,0.71-0.26,0.88l-13.81,7.48l9.02,9.13c0.12,0.13,0.19,0.3,0.19,0.47c0,0.18-0.08,0.34-0.21,0.46l-9.9,9.06
							l12.48,38.2c0.11,0.34-0.07,0.71-0.42,0.82C129.97,197.42,129.9,197.43,129.84,197.43z"/>
					</g>
				</g>
				<g>
					<g>
						<g>
							<g>
								<path class="st40" d="M78.23,315.21c-6.18,0-12.3-2.07-17.27-6.28l-2.18-1.82c-0.28-0.23-0.31-0.64-0.08-0.92
									c0.23-0.28,0.64-0.31,0.92-0.08l2.19,1.82c10.53,8.94,26.52,7.72,36.39-2.77l18.77-19.94c0.25-0.26,0.66-0.27,0.92-0.03
									c0.26,0.25,0.27,0.66,0.03,0.92l-18.77,19.94C93.44,312.1,85.8,315.21,78.23,315.21z"/>
							</g>
						</g>
					</g>
					<g>
						<g>
							<g>
								<g>
									<path class="st0" d="M111.13,131.25c0,0-40.76,16.45-77.54,55.39c-5.87,6.21-5.9,15.93-0.27,22.36l0,0
										c5.62,6.42,15.18,3.3,22.18-1.59l60.39-42.13L111.13,131.25z"/>
								</g>
							</g>
							<g>
								<path class="st40" d="M89.98,184.96c-0.2,0-0.4-0.09-0.52-0.26c-0.21-0.29-0.15-0.7,0.14-0.91l17.88-13.27
									c0.29-0.22,0.69-0.16,0.91,0.14c0.21,0.29,0.15,0.7-0.14,0.91l-17.88,13.27C90.25,184.92,90.12,184.96,89.98,184.96z"/>
							</g>
						</g>
						<g>
							<g>
								<g>
									<path class="st40" d="M71.06,198.88c-0.14,0-0.28-0.04-0.4-0.14l-11.05-8.5c-0.29-0.22-0.34-0.63-0.12-0.91
										c0.22-0.29,0.63-0.34,0.91-0.12l11.05,8.5c0.29,0.22,0.34,0.63,0.12,0.91C71.45,198.79,71.26,198.88,71.06,198.88z"/>
								</g>
							</g>
						</g>
					</g>
				</g>
			</g>
			<g>
				<g>
					<path class="st0" d="M154.09,132.5c0,0,14.3,2.5,17.74,14.38c3.44,11.88-9.66,109.04-9.66,109.04l26.24,77.75
						c0,0-19.02,6.18-24.97-9.74c-5.95-15.92-11.72-79.58-11.72-79.58L154.09,132.5z"/>
				</g>
			</g>
			<g>
				<path class="st41" d="M154.89,133.43c0,0.14,14.39,8.08,14.39,8.08l-9.21,10.08l-6.44-16.7L154.89,133.43z"/>
				<g>
					<path class="st40" d="M156.5,200.09c0.27,0,0.53-0.17,0.62-0.45l12.61-38.6c0.08-0.24,0.01-0.51-0.18-0.68l-9.71-8.89
						l9.15-9.26c0.14-0.14,0.21-0.35,0.18-0.55c-0.03-0.2-0.15-0.38-0.33-0.48l-14.57-7.9c-0.32-0.17-0.71-0.05-0.88,0.26
						c-0.17,0.32-0.05,0.71,0.26,0.88l13.81,7.48l-9.02,9.13c-0.12,0.13-0.19,0.3-0.19,0.47s0.08,0.34,0.21,0.46l9.9,9.06
						l-12.48,38.2c-0.11,0.34,0.08,0.71,0.42,0.82C156.37,200.08,156.44,200.09,156.5,200.09z"/>
				</g>
			</g>
			<g>
				<g>
					<g>
						<g>
							<g>
								<g>
									<path class="st4" d="M224.78,109.29c8.88-13.04,21.27-23.32,36.1-29.73c20.64-8.92,43.51-9.28,64.42-0.99
										c20.9,8.28,37.33,24.21,46.25,44.85c8.93,20.64,9.28,43.51,1,64.42c-17.1,43.15-66.11,64.35-109.26,47.25l0,0
										c-43.15-17.1-64.35-66.12-47.25-109.27C218.36,119.93,221.3,114.4,224.78,109.29z M355.54,198.54
										c3.01-4.43,5.59-9.24,7.64-14.42c7.29-18.4,6.98-38.54-0.87-56.71c-7.86-18.17-22.32-32.19-40.72-39.48
										c-18.4-7.29-38.54-6.98-56.71,0.88c-18.17,7.86-32.19,22.32-39.48,40.72c-15.05,37.99,3.61,81.14,41.59,96.19l0,0
										C299.8,238.71,336.46,226.57,355.54,198.54z"/>
								</g>
							</g>
							<g>
								<g>
									
										<rect x="132.45" y="199.38" transform="matrix(0.9179 -0.3969 0.3969 0.9179 -66.8968 88.5416)" class="st4" width="96.02" height="13.01"/>
								</g>
							</g>
						</g>
					</g>
				</g>
				<g>
					<g>
						<path class="st3" d="M50.63,262.03L50.63,262.03c-2.23-5.17,0.14-11.17,5.31-13.4l128.78-55.69l8.09,18.72L64.03,267.34
							C58.86,269.57,52.86,267.2,50.63,262.03z"/>
					</g>
				</g>
			</g>
			<g>
				<path class="st38" d="M83.3,217.52l13.35,4.95l6.06-0.21c2.8-0.1,3.53,3.83,0.88,4.74l-2.49,0.86l13.28,7.42
					c2.89,1.56,3.42,5.48,1.06,7.76l0,0c-6.09,5.89-15.44,6.88-22.56,2.29c-4.04-2.6-8.62-6.23-13.25-11.25L83.3,217.52z"/>
			</g>
			<g>
				<g>
					<path class="st0" d="M55.27,185.67l37.21,31.85l-11.46,23.75l-46.07-30.09c-6.85-5.77-7.77-15.99-2.04-22.89v0
						C38.46,181.58,48.31,180.42,55.27,185.67z"/>
				</g>
			</g>
			<g>
				<g>
					<path class="st38" d="M153.71,140.01c0,0,1.2,3.16-4.28,13.02c-5.67,10.2-16.12-22.34-16.12-22.34L153.71,140.01z"/>
					<g>
						<g>
							<g>
								<polygon class="st38" points="157.35,106.71 156.49,114.6 155.11,127.13 153.71,140 133.32,130.68 143.86,89.39 								"/>
							</g>
						</g>
						<g class="st36">
							<polygon class="st39" points="156.49,114.6 155.11,127.13 142.62,106.34 							"/>
						</g>
						<g>
							<g>
								<g>
									<path class="st3" d="M150.41,48.18c-1.6,12.57-13.09,21.47-25.66,19.88c-12.57-1.6-21.47-13.08-19.88-25.66
										c1.6-12.57,13.08-21.47,25.66-19.88C143.11,24.11,152.01,35.6,150.41,48.18z"/>
								</g>
							</g>
							<g>
								<g>
									<path class="st3" d="M171.13,57c0,0,11.73-7.76,18.27,4.03c6.53,11.78-7.89,32.36-7.89,32.36L171.13,57z"/>
								</g>
							</g>
							<g>
								<g>
									<path class="st3" d="M145.1,103.79L145.1,103.79l11.44-55.3l-4.61-0.54c-15.33-1.81-29.25,9.07-31.2,24.39l0,0
										C118.77,87.75,129.68,101.84,145.1,103.79z"/>
								</g>
							</g>
							<g>
								<path class="st42" d="M171.82,95.92c0.78,4.58,5.12,7.67,9.7,6.89c4.58-0.78,7.67-5.12,6.89-9.7
									c-0.78-4.58-5.12-7.67-9.7-6.89C174.13,86.99,171.04,91.34,171.82,95.92z"/>
							</g>
							<g>
								<path class="st38" d="M183.31,101.91c-0.12,0.27-0.24,0.54-0.37,0.8c-1.76,3.65-4.08,6.83-6.97,9.25
									c-5.47,4.57-12.92,6.4-22.17,3.39c0,0-17.11-3.95-17.88-26.36c-1.24-35.7,29.81-42.07,45.91-24.54
									c1.88,2.04,2.9,4.72,3.09,7.49C185.48,79.86,186.76,93.66,183.31,101.91z"/>
							</g>
							<g>
								<g>
									<path class="st39" d="M179.35,77.05c0,0-0.98,2.05,1.63,2.83c1.98,0.59,3.25,0.93,4.32,1.57c0.61,0.36,1.39,0.23,1.85-0.31
										l0,0c0.37-0.43,0.46-1.04,0.21-1.55c-0.51-1.04-1.66-2.69-4.06-3.45C180.2,75.18,179.35,77.05,179.35,77.05z"/>
								</g>
								<g>
									<path class="st39" d="M168.69,73.79c0,0,0.54,2.26-2.95,2.2c-2.65-0.05-5.9,0.54-7.43,0.82c-0.87,0.16-1.79-0.21-2.18-0.86
										l0,0c-0.31-0.53-0.22-1.14,0.25-1.55c0.97-0.84,4.51-2.71,7.73-2.69C168.25,71.74,168.69,73.79,168.69,73.79z"/>
								</g>
							</g>
							<g>
								<g>
									<path class="st3" d="M148.93,65.84c0,0-6.12,4.9-6.8,25.12l-14.93-14.09c0,0,4.86-31.76,33.55-23.33L148.93,65.84z"/>
								</g>
							</g>
							<g>
								<g>
									<path class="st38" d="M124.51,92.76c0.84,4.98,5.56,8.32,10.54,7.48c4.98-0.84,8.32-5.56,7.48-10.54
										c-0.84-4.97-5.56-8.32-10.54-7.48C127.02,83.07,123.67,87.79,124.51,92.76z"/>
								</g>
								<g>
									<path class="st39" d="M137.5,94.95c-0.21,0-0.39-0.16-0.41-0.37c-0.25-2.22-1.06-3.87-2.41-4.9
										c-2.1-1.61-4.81-1.21-4.84-1.21c-0.23,0.04-0.44-0.12-0.47-0.35c-0.04-0.23,0.12-0.44,0.35-0.47
										c0.12-0.02,3.09-0.46,5.47,1.37c1.54,1.18,2.46,3.02,2.73,5.47c0.03,0.23-0.14,0.43-0.37,0.46
										C137.53,94.95,137.51,94.95,137.5,94.95z"/>
								</g>
							</g>
							<g>
								<g>
									<path class="st3" d="M176.1,59.77c-6.01,8-18.56,20.07-39.82,20.69l-8.64-15.48l29.74-16.38l15.42,2.88
										C176.67,52.13,178.46,56.64,176.1,59.77z"/>
								</g>
							</g>
							<g>
								<path class="st43" d="M162.2,104.08c4.69,2.96,9.96,0.79,9.88-1.58c-0.02-0.54-0.72-0.91-1.85-1.49
									c-0.08-0.04-0.17-0.09-0.26-0.13c-1.01-0.52-2.3-1.21-3.7-2.27c-0.72-0.54-1.31-1.08-1.82-1.6
									c-0.51-0.52-0.95-1.02-1.35-1.47c-0.97-1.1-1.74-1.91-2.98-2.14C157.87,93,157.51,101.11,162.2,104.08z"/>
								<g>
									<path class="st8" d="M162.83,98.5c1.07,1.97,1.88,4.34,2.02,6.74c-0.88-0.23-1.78-0.6-2.66-1.16
										c-3.67-2.32-4.25-7.78-3.25-9.86C160.57,94.66,162.05,97.06,162.83,98.5z"/>
								</g>
								<path class="st41" d="M163.11,95.55c-0.47,1.64,0.28,3.65,1.97,4.91c1.66,1.23,3.72,1.39,5.15,0.56
									c-0.08-0.04-0.17-0.09-0.26-0.13c-1.01-0.52-2.3-1.21-3.7-2.27c-0.72-0.54-1.31-1.08-1.82-1.6
									C163.94,96.5,163.51,96,163.11,95.55z"/>
							</g>
							<g class="st44">
								<path class="st8" d="M171.51,94.17c-0.14,0.61-0.23,1.35,0.23,1.77c0.19,0.18,0.45,0.26,0.7,0.33
									c0.78,0.22,1.59,0.33,2.41,0.35c0.53,0.01,1.12-0.05,1.47-0.45c0.25-0.3,0.3-0.71,0.32-1.1c0.08-1.56-0.01-5.89-2.36-5.84
									C172.45,89.27,171.81,92.85,171.51,94.17z"/>
							</g>
							<path class="st39" d="M168.05,89.45c-0.69,0.78-6.12-3.99-5.43-4.77c0.69-0.78,2.46-0.34,3.96,0.97
								C168.07,86.97,168.73,88.67,168.05,89.45z"/>
							<path class="st39" d="M178.8,91.67c0.3,0.86,6.28-1.26,5.98-2.12c-0.3-0.86-1.89-1.08-3.54-0.5
								C179.58,89.65,178.49,90.82,178.8,91.67z"/>
							<g class="st36">
								<path class="st8" d="M154.72,96.62c0,3.86-3.13,7-7,7c-3.86,0-7-3.13-7-7c0-3.86,3.13-7,7-7
									C151.59,89.63,154.72,92.76,154.72,96.62z"/>
							</g>
							<g class="st36">
								<path class="st8" d="M183.31,101.91c-0.12,0.27-0.24,0.54-0.37,0.8c-1.76,3.65-4.08,6.83-6.97,9.25
									c-0.86-1.09-1.35-2.45-1.35-3.95c0-3.58,2.9-6.49,6.49-6.49C181.88,101.53,182.63,101.67,183.31,101.91z"/>
							</g>
						</g>
					</g>
				</g>
			</g>
		</g>
	</g>
</g>
</svg>
