<?xml version="1.0" encoding="utf-8"?>
<!-- Generator: Adobe Illustrator 23.0.0, SVG Export Plug-In . SVG Version: 6.00 Build 0)  -->
<svg version="1.1" xmlns="http://www.w3.org/2000/svg" xmlns:xlink="http://www.w3.org/1999/xlink" x="0px" y="0px"
	 viewBox="0 0 510.24 841.89" style="enable-background:new 0 0 510.24 841.89;" xml:space="preserve">
<style type="text/css">
	.st0{fill:#7B90AA;}
	.st1{fill:#FFFFFF;}
	.st2{fill:#EDEDED;}
	.st3{fill:#0C5375;}
	.st4{fill:#081927;}
	.st5{fill:#EAAF83;}
	.st6{fill:#EABD98;}
	.st7{fill:#0F5275;}
	.st8{fill:#304259;}
	.st9{fill:#EF9850;}
	.st10{fill:#FFD4D9;}
	.st11{fill:#494CF8;}
	.st12{fill:#F1A45E;}
	.st13{display:none;}
	.st14{display:inline;}
	.st15{fill:#040C11;}
	.st16{fill:#212E3D;}
</style>
<g id="Layer_1">
	<g>
		<path class="st0" d="M273.37,685.15l-6.92-385.03l-93.78,4.68L82.82,666.49C150.08,651.45,212.4,664.36,273.37,685.15z"/>
		<path class="st0" d="M53.72,410.4c58.47,16.53,112.97,35.39,170.91,17.09c0.52-7.74,7.41-32.13,11.97-44.89
			c7.22-20.09,16.42-53.72,18.52-66.4c2.58-15.41-1.53-107.99-34.94-115.44c-37-8.27-63.93-5.42-100.78,8.87
			c-12.01,4.64-21.25,13.47-25.29,24.2c-10.55,27.94-15.08,57.5-16.57,87.16c-1.27,25.59-7.48,50.65-17.36,74.29
			C58.13,400.07,56,405.09,53.72,410.4z"/>
		<g>
			<path class="st1" d="M236.97,242.14l-22-46.68c0,0,49.79,16.46,66.21,45.52c13.13,23.23,17.92,150.98,22.07,153.59
				c4.15,2.62,105.04,58.69,105.04,58.69l-50.99,26.26l-79.3-23.68l-14.92-127.18L236.97,242.14z"/>
			<g>
				<path class="st2" d="M212.66,195.46c0,0,36.7,70.81,36.7,116.34c0,59.25-7.41,412.38-7.41,412.38l22.22-10.96
					c0,0,20.35-382.12,17.1-410.66c-3.22-28.28-16.53-82.56-28.32-95.39C241.16,194.33,212.66,195.46,212.66,195.46z"/>
				<path class="st3" d="M248.57,348.38c0,0,0.97-43.39-4.98-63.89c-5.95-20.5-29.14-84.8-29.14-84.8l21.14,4.75l36.92,67.97
					l-18.55,12.72l19.41,11.22L248.57,348.38z"/>
			</g>
		</g>
		<g>
			<g>
				<g>
					<rect x="49.94" y="587.6" class="st4" width="22.44" height="224.44"/>
					<rect x="213.07" y="587.6" class="st4" width="22.44" height="224.44"/>
				</g>
				<path class="st4" d="M252.98,602.04v-24.09c0-10.89-8.83-19.71-19.71-19.71H54.02c-10.89,0-19.71,8.83-19.71,19.71v24.09H252.98
					z"/>
			</g>
		</g>
		<g>
			<g>
				<g>
					<g>
						<g>
							<path class="st4" d="M370.78,829.43c-9.28,3.59-96.44-2.06-104.48-11c-1.53-1.72-1.53-6.21-0.37-11.56
								c1.35-6.36,4.3-13.92,8.15-19.41c1.53-2.17,3.22-4.04,4.98-5.35c5.39-4.04,12.72-4.79,19.3-3.44
								c6.62,1.31,12.91,3.78,19.86,6.21c14.51,5.05,28.62,11.18,40.81,20.2c3.82,2.84,7.48,5.95,10.88,9.39
								c0.97,1.01,2.09,2.58,2.92,4.38C374.75,822.74,375.38,827.64,370.78,829.43z"/>
						</g>
					</g>
					<path class="st5" d="M359.03,805.04c-4.6,1.68-19.64,1.68-29.66,0.6c-14.44-1.53-34.19-8.34-55.29-18.22
						c1.53-2.17,3.22-4.04,4.98-5.35c5.39-4.04,12.72-4.79,19.3-3.44c6.62,1.31,12.91,3.78,19.86,6.21
						C332.74,789.89,346.84,796.03,359.03,805.04z"/>
				</g>
				<path class="st5" d="M414.96,524.38c-5.69-25.4-54.84-49.12-105.23-67.11c-15.9,10.74-31.65,21.7-46.24,34.68
					c-7.37,6.55-14.36,13.28-21.1,20.27c-6.4,7.93-12.49,16.12-18.59,24.35l110.84,56.75L271.2,776.73
					c16.09,8.19,38.64,8.38,44.51,9.09C348.22,715.75,422.74,559.2,414.96,524.38z"/>
			</g>
			<g>
				<g>
					<g>
						<g>
							<path class="st4" d="M328.29,834.71c-9.5,3.74-98.94-2.09-107.21-11.26c-1.12-1.27-1.46-4.04-1.08-7.56
								c0.94-9.35,6.58-24.05,14.18-29.7c0.11-0.07,0.19-0.15,0.3-0.19c5.5-4.04,12.83-4.71,19.53-3.4
								c6.81,1.35,13.2,3.93,20.35,6.36c14.51,5.09,28.69,11.22,40.96,20.09c4.26,3.07,8.34,6.51,12.08,10.29
								c1.68,1.72,3.78,5.24,4.3,8.57C332.18,830.74,331.5,833.47,328.29,834.71z"/>
						</g>
					</g>
					<path class="st6" d="M315.31,809.05c-5.76,1.98-30.15,1.12-44.36-3.55c-10.96-3.59-28.43-11-36.47-19.49
						c5.5-4.04,12.83-4.71,19.53-3.4c6.81,1.35,13.2,3.93,20.35,6.36C288.86,794.05,303.04,800.18,315.31,809.05z"/>
				</g>
				<path class="st6" d="M273.9,479.71c-9.16,4.83-17.99,10.21-26.45,16.01c-29.25,20.09-47.25,44.33-57.79,75.53
					c44.1,4.68,80.09,4.41,80.09,4.41l-30.9,207.68c12.79,10.59,30.82,10.51,44.7,9.28c0,0,93.86-229.94,65.39-269.71
					C336.37,505.38,305.02,490.67,273.9,479.71z"/>
			</g>
			<path class="st7" d="M66.58,393.83c0,0-19.15,40.96-21.85,85.89c-2.66,44.63,8.04,69.43,57.2,79.9
				c49.15,10.47,142.04,16.08,142.04,16.08s-7.18-25.85,17.51-47.36c31.8-27.76,135.71-34.86,149.97-12.38
				c0,0-8.9-20.35-27.68-33.67c-18.78-13.32-171.1-56.04-171.1-56.04L66.58,393.83z"/>
		</g>
		<g>
			<path class="st2" d="M82.71,229.61c13.65-18.18,58.99-37.11,72.01-37.11c13.02,0,36.21,98.12,32.62,135.6
				c-3.59,37.48-17.43,81.17-31.98,131.75c-28.8,99.99-28.32,279.69-28.32,279.69l-97.97-41.56c0,0-22.63-156.62,3.67-256.58
				c9.95-37.86,17.43-79.42,24.84-123.29C64.98,274.24,65.01,253.18,82.71,229.61z"/>
			<path class="st3" d="M185.47,346.96l-25.96-44.96l19.86-19.41l-31.76-18.07l-8.94-75.94l20.05-3.22c0,0,24.13,66.06,28.58,89.85
				C192.98,305.21,185.47,346.96,185.47,346.96z"/>
			<polygon class="st3" points="57.49,631.48 116.3,607.38 119.48,619.84 60.26,644.04 			"/>
		</g>
		<g>
			<path class="st4" d="M293.16,77.74c5.27,13.8-3.78,43.32-5.5,58.17c-5.76,49.34,12.31,47.92,9.28,74.07
				c-1.27,10.89-10.32,19.26-19.79,22.41c-9.46,3.14-19.83,1.53-28.95-2.62c-9.13-4.15-17.24-10.66-24.99-17.51
				c-6.92-6.1-15.34-15.15-14.44-26.04c3.25-39.39,12.23-75.6,15.49-114.95c0.15-2.02,0.49-4.3,2.06-5.31
				c1.01-0.67,2.24-0.6,3.4-0.49C247.75,66.85,273.18,70.4,293.16,77.74z"/>
			<g>
				<g>
					<g>
						<path class="st6" d="M150.08,203.5c17.1,17.1,53.64,45.71,62.58,45.15c8.01-0.52,2.66-36.88,2.28-40.92
							c-0.3-3.18-0.22-6.1,0.11-8.9c1.2-10.51,6.02-18.29,9.58-24.88c-20.54-8.3-34.45-16.98-49.71-29.07
							C171.62,162.73,154.75,197.66,150.08,203.5z"/>
					</g>
				</g>
				<path class="st5" d="M168.44,170.02c0.94,1.08,1.91,2.13,2.88,3.22c10.14,10.92,22.56,20.16,36.85,24.24
					c2.24,0.64,4.56,1.12,6.88,1.35c1.2-10.51,6.02-18.29,9.58-24.88c-20.54-8.3-34.45-16.98-49.71-29.07
					C173.27,153.82,171.25,162.13,168.44,170.02z"/>
			</g>
			<g>
				<g>
					<path class="st6" d="M285.01,104.18c0,44.29-17.13,88.32-49,88.32c-18.4,0-38.23-11.04-53.6-27.34
						c-4.38-4.6-8.34-9.65-11.82-14.96c-9.35-14.1-15.22-30.26-15.22-46.01c0-44.22,28.99-80.13,64.83-80.13
						c42.2,0,57.01,36.92,62.17,60.64c1.12,5.27,1.8,9.88,2.17,13.28C284.93,101.56,285.01,103.81,285.01,104.18z"/>
					<path class="st5" d="M284.52,97.97c-21.43,6.4-53.75-0.07-71.9-10.77c0.45,10.59-5.24,22.37-11.63,30.45
						c-6.36,8.04-13.62,15.97-17.99,32.25c-1.16,4.38-1.35,9.88-0.6,15.26c0.15,1.31,0.37,2.58,0.67,3.85
						c1.23,5.69,3.59,10.92,7,14.18c-5.72-5.12-11.18-14.51-15.75-24.39c-1.35-2.84-2.58-5.76-3.74-8.6
						c-2.06-5.05-3.82-9.91-5.2-14.07c5.91-27.61,11.26-54.88,16.57-82.22c31.35,8.15,68.83,19.3,100.4,30.79
						C283.47,89.97,284.15,94.57,284.52,97.97z"/>
				</g>
				<g>
					<g>
						<g>
							<path class="st4" d="M220.56,120.51c0.44,0,0.88-0.15,1.25-0.45c5.32-4.37,15.83-5.32,19.78-2.84
								c0.92,0.58,2.13,0.3,2.71-0.62c0.58-0.92,0.3-2.13-0.62-2.71c-5.78-3.61-18.08-2.03-24.36,3.14
								c-0.84,0.69-0.96,1.93-0.27,2.76C219.43,120.27,219.99,120.51,220.56,120.51z"/>
						</g>
					</g>
					<g>
						<g>
							<path class="st4" d="M285.04,118.75c0.55,0,1.09-0.23,1.48-0.67c0.71-0.82,0.63-2.06-0.19-2.77
								c-4.99-4.35-14.16-4.94-20.89-1.34c-0.96,0.51-1.32,1.7-0.8,2.66c0.51,0.96,1.7,1.31,2.66,0.81
								c5.21-2.79,12.74-2.41,16.45,0.83C284.13,118.59,284.58,118.75,285.04,118.75z"/>
						</g>
					</g>
					<path class="st4" d="M234.58,134.26c1.55,0,2.81,1.67,2.81,3.74s-1.26,3.74-2.81,3.74c-1.55,0-2.81-1.67-2.81-3.74
						S233.03,134.26,234.58,134.26z"/>
					<path class="st4" d="M271.61,134.26c1.55,0,2.81,1.67,2.81,3.74s-1.26,3.74-2.81,3.74c-1.55,0-2.81-1.67-2.81-3.74
						S270.06,134.26,271.61,134.26z"/>
					<g>
						<g>
							<path class="st5" d="M258.15,156.95c0.79,0,1.53-0.48,1.83-1.26c2.09-5.45,2.95-11.3,2.48-16.92
								c-0.09-1.08-1.07-1.88-2.12-1.79c-1.08,0.09-1.88,1.04-1.79,2.12c0.42,5.03-0.35,10.28-2.23,15.18
								c-0.39,1.01,0.12,2.15,1.13,2.54C257.68,156.9,257.91,156.95,258.15,156.95z"/>
						</g>
					</g>
					<g>
						<g>
							<path class="st5" d="M251.3,171.09c1.07,0,1.95-0.86,1.96-1.94c0.02-1.08-0.85-1.98-1.94-1.99
								c-7.48-0.11-15.03-3.38-20.2-8.75c-0.75-0.78-2-0.8-2.78-0.05c-0.78,0.75-0.81,1.99-0.05,2.78
								c5.97,6.2,14.34,9.83,22.97,9.95C251.28,171.09,251.29,171.09,251.3,171.09z"/>
						</g>
					</g>
				</g>
			</g>
			<g>
				<path class="st4" d="M131.26,165.98c2.28-8.12,2.84-16.76,0.97-25.03c-6.32-27.79-4.94-60.3,9.43-83.61
					c9.73-15.79,28.62-27.42,44.89-20.69c13.02,5.35,20.09,22.44,21.73,38.68c2.17,21.7-3.48,44.14-15.37,60.97
					c-8.15,11.52-10.55,27.27-6.02,41.3l4.79,14.89c4,12.49,7.89,27.38-1.38,37.78c-3.7,4.15-8.79,6.21-13.88,6.7
					c-17.28,1.72-37.82-9.99-45.94-27.94C124.83,196.5,127,181.28,131.26,165.98z"/>
				<g>
					<path class="st4" d="M164.48,44.07c21.1,28.09,76.39,57.31,125.8,50.91c5.84-0.75,9.69-2.58,12.16-4.98
						c6.25-6.21,3.37-16.5-0.71-24.39c-9.02-17.36-19.3-32.32-39.76-45.3C241.54,7.3,213.22,1.8,190.25,9.58
						c-6.7,2.28-12.46,5.16-16.98,8.42C162.23,25.81,158.19,35.73,164.48,44.07z"/>
					<path class="st8" d="M173.27,18.03c9.84-3.03,20.46-3.78,30.67-2.62c19.15,2.28,37.07,10.74,53.72,20.5
						c14.51,8.53,28.8,18.59,37.56,32.92c3.89,6.36,6.43,13.77,7.22,21.17c6.25-6.21,3.37-16.5-0.71-24.39
						c-9.02-17.36-19.3-32.32-39.76-45.3C241.54,7.3,213.22,1.8,190.25,9.58C183.56,11.86,177.83,14.74,173.27,18.03z"/>
				</g>
			</g>
		</g>
		<g>
			<g>
				<g>
					<polygon class="st9" points="161.94,444.06 258.41,492.21 407.7,495.05 412.38,486.75 409.8,485.33 327.05,438.9 
						163.17,436.58 163.17,436.62 					"/>
					<g>
						<polygon class="st10" points="163.17,436.58 163.17,436.62 262.07,486 409.8,485.33 327.05,438.9 						"/>
						<g>
							<g>
								<g>
									<polygon class="st11" points="268.77,479.68 210.42,451.43 338.01,452.86 309.36,475.23 									"/>
								</g>
								<g>
									<g>
										<polygon class="st10" points="244.2,471.98 307.76,471.34 307.74,469.38 244.18,470.02 										"/>
									</g>
									<g>
										<polygon class="st10" points="229.47,464.61 292.98,463.98 292.96,462.01 229.44,462.65 										"/>
									</g>
									<g>
										<polygon class="st10" points="216.79,457.24 280.34,456.61 280.32,454.64 216.77,455.28 										"/>
									</g>
									<g>
										
											<rect x="239.51" y="427.63" transform="matrix(0.4457 -0.8952 0.8952 0.4457 -277.9436 469.953)" class="st10" width="1.96" height="63.54"/>
									</g>
									<g>
										
											<rect x="253.24" y="424.49" transform="matrix(0.4456 -0.8952 0.8952 0.4456 -267.519 480.5311)" class="st10" width="1.96" height="63.54"/>
									</g>
									<g>
										<polygon class="st10" points="296.9,468.13 297.8,466.38 248.98,441.21 248.08,442.96 										"/>
									</g>
								</g>
							</g>
							<g>
								<polygon class="st11" points="274.2,441.04 227.7,441.04 245.24,449.23 291.96,449.68 								"/>
							</g>
						</g>
					</g>
				</g>
				<g>
					<polyline class="st9" points="455.88,388.96 504.17,364.84 497.37,356.64 343.59,355.45 258.48,482.37 263.72,489.37 					"/>
					<polygon class="st12" points="263.72,489.29 348.15,363.94 504.17,364.65 419.97,489.81 					"/>
					<path class="st4" d="M391.28,413.88c13.64,0,24.69,4.62,24.69,10.32c0,5.7-11.05,10.32-24.69,10.32
						c-13.64,0-24.69-4.62-24.69-10.32C366.59,418.5,377.64,413.88,391.28,413.88z"/>
				</g>
			</g>
			<path class="st6" d="M172.37,418.85c18.78-6.88,48.97-19.04,59.85-15.19c11.3,3.97,22.11,19.9,26.86,36.06
				c0.45,1.57,0.86,3.25,0.49,4.86c-0.37,1.61-1.83,3.07-3.44,2.88c-1.35-0.15-2.36-1.35-3.22-2.43
				c-5.91-7.67-11.82-15.37-19.3-23.23c6.21,7.86,10.59,17.21,12.68,27.05c0.52,2.43,0.45,5.72-1.91,6.47
				c-2.21,0.71-4.11-1.61-5.27-3.59c-5.01-8.42-9.99-16.83-16.5-25.89c4.15,7,7.07,14.74,8.57,22.78c0.41,2.17,0.3,5.05-1.76,5.76
				c-1.91,0.64-3.63-1.23-4.75-2.92c-4.45-6.66-8.53-13.62-12.61-21.02c1.76,6.02,3.55,12.05,5.31,18.07
				c0.71,2.39,1.08,5.65-1.08,6.81c-1.98,1.08-4.3-0.6-5.8-2.28c-4.15-4.6-7.37-7.97-9.39-13.17c-4.71,5.84-11.86,7.52-19.26,8.15
				c-7.44,0.64-16.2-4.3-22.33-8.15C163.58,432.47,168.11,427.16,172.37,418.85z"/>
		</g>
		<path class="st1" d="M106.72,216.89c-18.4,0.82-38.34,19.26-50.2,83.98c-10.47,57.16-14.93,113.42-9.39,126.59
			c4.19,9.88,117.23,36.47,117.23,36.47l15-50.65c0,0-55.14-16.12-60.41-27.76c-2.47-5.5,5.57-40.59,13.69-88.17
			C139.42,257.78,130.93,215.84,106.72,216.89z"/>
	</g>
</g>
<g id="Layer_2" class="st13">
	<g class="st14">
		<path class="st0" d="M-329.63,679.15l-6.92-385.03l-93.78,4.68l-89.85,361.69C-452.92,645.45-390.6,658.36-329.63,679.15z"/>
		<path class="st0" d="M-549.28,404.4c58.47,16.53,112.97,35.39,170.91,17.09c0.52-7.74,7.41-32.13,11.97-44.89
			c7.22-20.09,16.42-53.72,18.52-66.4c2.58-15.41-1.53-107.99-34.94-115.44c-37-8.27-63.93-5.42-100.78,8.87
			c-12.01,4.64-21.25,13.47-25.29,24.2c-10.55,27.94-15.08,57.5-16.57,87.16c-1.27,25.59-7.48,50.65-17.36,74.29
			C-544.87,394.07-547,399.09-549.28,404.4z"/>
		<g>
			<path class="st1" d="M-366.03,236.14l-22-46.68c0,0,49.79,16.46,66.21,45.52c13.13,23.23,17.92,150.98,22.07,153.59
				c4.15,2.62,105.04,58.69,105.04,58.69l-50.99,26.26l-79.3-23.68l-14.92-127.18L-366.03,236.14z"/>
			<g>
				<path class="st2" d="M-390.34,189.46c0,0,36.7,70.81,36.7,116.34c0,59.25-7.41,412.38-7.41,412.38l22.22-10.96
					c0,0,20.35-382.12,17.1-410.66c-3.22-28.28-16.53-82.56-28.32-95.39C-361.84,188.33-390.34,189.46-390.34,189.46z"/>
				<path class="st3" d="M-354.43,342.38c0,0,0.97-43.39-4.98-63.89c-5.95-20.5-29.14-84.8-29.14-84.8l21.14,4.75l36.92,67.97
					l-18.55,12.72l19.41,11.22L-354.43,342.38z"/>
			</g>
		</g>
		<g>
			<g>
				<g>
					<rect x="-553.06" y="581.6" class="st15" width="22.44" height="224.44"/>
					<rect x="-389.93" y="581.6" class="st15" width="22.44" height="224.44"/>
				</g>
				<path class="st15" d="M-350.02,596.04v-24.09c0-10.89-8.83-19.71-19.71-19.71h-179.26c-10.89,0-19.71,8.83-19.71,19.71v24.09
					H-350.02z"/>
			</g>
		</g>
		<g>
			<g>
				<g>
					<g>
						<g>
							<path class="st15" d="M-232.22,823.43c-9.28,3.59-96.44-2.06-104.48-11c-1.53-1.72-1.53-6.21-0.37-11.56
								c1.35-6.36,4.3-13.92,8.15-19.41c1.53-2.17,3.22-4.04,4.98-5.35c5.39-4.04,12.72-4.79,19.3-3.44
								c6.62,1.31,12.91,3.78,19.86,6.21c14.51,5.05,28.62,11.18,40.81,20.2c3.82,2.84,7.48,5.95,10.88,9.39
								c0.97,1.01,2.09,2.58,2.92,4.38C-228.25,816.74-227.62,821.64-232.22,823.43z"/>
						</g>
					</g>
					<path class="st5" d="M-243.97,799.04c-4.6,1.68-19.64,1.68-29.66,0.6c-14.44-1.53-34.19-8.34-55.29-18.22
						c1.53-2.17,3.22-4.04,4.98-5.35c5.39-4.04,12.72-4.79,19.3-3.44c6.62,1.31,12.91,3.78,19.86,6.21
						C-270.26,783.89-256.16,790.03-243.97,799.04z"/>
				</g>
				<path class="st5" d="M-188.04,518.38c-5.69-25.4-54.84-49.12-105.23-67.11c-15.9,10.74-31.65,21.7-46.24,34.68
					c-7.37,6.55-14.36,13.28-21.1,20.27c-6.4,7.93-12.49,16.12-18.59,24.35l110.84,56.75l-63.44,183.41
					c16.09,8.19,38.64,8.38,44.51,9.09C-254.78,709.75-180.26,553.2-188.04,518.38z"/>
			</g>
			<g>
				<g>
					<g>
						<g>
							<path class="st15" d="M-274.71,828.71c-9.5,3.74-98.94-2.09-107.21-11.26c-1.12-1.27-1.46-4.04-1.08-7.56
								c0.94-9.35,6.58-24.05,14.18-29.7c0.11-0.07,0.19-0.15,0.3-0.19c5.5-4.04,12.83-4.71,19.53-3.4
								c6.81,1.35,13.2,3.93,20.35,6.36c14.51,5.09,28.69,11.22,40.96,20.09c4.26,3.07,8.34,6.51,12.08,10.29
								c1.68,1.72,3.78,5.24,4.3,8.57C-270.82,824.74-271.5,827.47-274.71,828.71z"/>
						</g>
					</g>
					<path class="st6" d="M-287.69,803.05c-5.76,1.98-30.15,1.12-44.36-3.55c-10.96-3.59-28.43-11-36.47-19.49
						c5.5-4.04,12.83-4.71,19.53-3.4c6.81,1.35,13.2,3.93,20.35,6.36C-314.14,788.05-299.96,794.18-287.69,803.05z"/>
				</g>
				<path class="st6" d="M-329.1,473.71c-9.16,4.83-17.99,10.21-26.45,16.01c-29.25,20.09-47.25,44.33-57.79,75.53
					c44.1,4.68,80.09,4.41,80.09,4.41l-30.9,207.68c12.79,10.59,30.82,10.51,44.7,9.28c0,0,93.86-229.94,65.39-269.71
					C-266.63,499.38-297.98,484.67-329.1,473.71z"/>
			</g>
			<path class="st7" d="M-536.42,387.83c0,0-19.15,40.96-21.85,85.89c-2.66,44.63,8.04,69.43,57.2,79.9
				c49.15,10.47,142.04,16.08,142.04,16.08s-7.18-25.85,17.51-47.36c31.8-27.76,135.71-34.86,149.97-12.38
				c0,0-8.9-20.35-27.68-33.67c-18.78-13.32-171.1-56.04-171.1-56.04L-536.42,387.83z"/>
		</g>
		<g>
			<path class="st2" d="M-520.29,223.61c13.65-18.18,58.99-37.11,72.01-37.11c13.02,0,36.21,98.12,32.62,135.6
				c-3.59,37.48-17.43,81.17-31.98,131.75c-28.8,99.99-28.32,279.69-28.32,279.69l-97.97-41.56c0,0-22.63-156.62,3.67-256.58
				c9.95-37.86,17.43-79.42,24.84-123.29C-538.02,268.24-537.99,247.18-520.29,223.61z"/>
			<path class="st3" d="M-417.53,340.96l-25.96-44.96l19.86-19.41l-31.76-18.07l-8.94-75.94l20.05-3.22c0,0,24.13,66.06,28.58,89.85
				C-410.02,299.21-417.53,340.96-417.53,340.96z"/>
			<polygon class="st3" points="-545.51,625.48 -486.7,601.38 -483.52,613.84 -542.74,638.04 			"/>
		</g>
		<g>
			<path class="st15" d="M-309.84,71.74c5.27,13.8-3.78,43.32-5.5,58.17c-5.76,49.34,12.31,47.92,9.28,74.07
				c-1.27,10.89-10.32,19.26-19.79,22.41c-9.46,3.14-19.83,1.53-28.95-2.62c-9.13-4.15-17.24-10.66-24.99-17.51
				c-6.92-6.1-15.34-15.15-14.44-26.04c3.25-39.39,12.23-75.6,15.49-114.95c0.15-2.02,0.49-4.3,2.06-5.31
				c1.01-0.67,2.24-0.6,3.4-0.49C-355.25,60.85-329.82,64.4-309.84,71.74z"/>
			<g>
				<g>
					<g>
						<path class="st6" d="M-452.92,197.5c17.1,17.1,53.64,45.71,62.58,45.15c8.01-0.52,2.66-36.88,2.28-40.92
							c-0.3-3.18-0.22-6.1,0.11-8.9c1.2-10.51,6.02-18.29,9.58-24.88c-20.54-8.3-34.45-16.98-49.71-29.07
							C-431.38,156.73-448.25,191.66-452.92,197.5z"/>
					</g>
				</g>
				<path class="st5" d="M-434.56,164.02c0.94,1.08,1.91,2.13,2.88,3.22c10.14,10.92,22.56,20.16,36.85,24.24
					c2.24,0.64,4.56,1.12,6.88,1.35c1.2-10.51,6.02-18.29,9.58-24.88c-20.54-8.3-34.45-16.98-49.71-29.07
					C-429.73,147.82-431.75,156.13-434.56,164.02z"/>
			</g>
			<g>
				<g>
					<path class="st6" d="M-317.99,98.18c0,44.29-17.13,88.32-49,88.32c-18.4,0-38.23-11.04-53.6-27.34
						c-4.38-4.6-8.34-9.65-11.82-14.96c-9.35-14.1-15.22-30.26-15.22-46.01c0-44.22,28.99-80.13,64.83-80.13
						c42.2,0,57.01,36.92,62.17,60.64c1.12,5.27,1.8,9.88,2.17,13.28C-318.07,95.56-317.99,97.81-317.99,98.18z"/>
					<path class="st5" d="M-318.48,91.97c-21.43,6.4-53.75-0.07-71.9-10.77c0.45,10.59-5.24,22.37-11.63,30.45
						c-6.36,8.04-13.62,15.97-17.99,32.25c-1.16,4.38-1.35,9.88-0.6,15.26c0.15,1.31,0.37,2.58,0.67,3.85
						c1.23,5.69,3.59,10.92,7,14.18c-5.72-5.12-11.18-14.51-15.75-24.39c-1.35-2.84-2.58-5.76-3.74-8.6
						c-2.06-5.05-3.82-9.91-5.2-14.07c5.91-27.61,11.26-54.88,16.57-82.22c31.35,8.15,68.83,19.3,100.4,30.79
						C-319.53,83.97-318.85,88.57-318.48,91.97z"/>
				</g>
				<g>
					<g>
						<g>
							<path class="st4" d="M-382.44,114.51c0.44,0,0.88-0.15,1.25-0.45c5.32-4.37,15.83-5.32,19.78-2.84
								c0.92,0.58,2.13,0.3,2.71-0.62c0.58-0.92,0.3-2.13-0.62-2.71c-5.78-3.61-18.08-2.03-24.36,3.14
								c-0.84,0.69-0.96,1.93-0.27,2.76C-383.57,114.27-383.01,114.51-382.44,114.51z"/>
						</g>
					</g>
					<g>
						<g>
							<path class="st4" d="M-317.96,112.75c0.55,0,1.09-0.23,1.48-0.67c0.71-0.82,0.63-2.06-0.19-2.77
								c-4.99-4.35-14.16-4.94-20.89-1.34c-0.96,0.51-1.32,1.7-0.8,2.66c0.51,0.96,1.7,1.31,2.66,0.81
								c5.21-2.79,12.74-2.41,16.45,0.83C-318.87,112.59-318.42,112.75-317.96,112.75z"/>
						</g>
					</g>
					<path class="st4" d="M-368.42,128.26c1.55,0,2.81,1.67,2.81,3.74s-1.26,3.74-2.81,3.74c-1.55,0-2.81-1.67-2.81-3.74
						S-369.97,128.26-368.42,128.26z"/>
					<path class="st4" d="M-331.39,128.26c1.55,0,2.81,1.67,2.81,3.74s-1.26,3.74-2.81,3.74c-1.55,0-2.81-1.67-2.81-3.74
						S-332.94,128.26-331.39,128.26z"/>
					<g>
						<g>
							<path class="st5" d="M-344.85,150.95c0.79,0,1.53-0.48,1.83-1.26c2.09-5.45,2.95-11.3,2.48-16.92
								c-0.09-1.08-1.07-1.88-2.12-1.79c-1.08,0.09-1.88,1.04-1.79,2.12c0.42,5.03-0.35,10.28-2.23,15.18
								c-0.39,1.01,0.12,2.15,1.13,2.54C-345.32,150.9-345.09,150.95-344.85,150.95z"/>
						</g>
					</g>
					<g>
						<g>
							<path class="st5" d="M-351.7,165.09c1.07,0,1.95-0.86,1.96-1.94c0.02-1.08-0.85-1.98-1.94-1.99
								c-7.48-0.11-15.03-3.38-20.2-8.75c-0.75-0.78-2-0.8-2.78-0.05c-0.78,0.75-0.81,1.99-0.05,2.78
								c5.97,6.2,14.34,9.83,22.97,9.95C-351.72,165.09-351.71,165.09-351.7,165.09z"/>
						</g>
					</g>
				</g>
			</g>
			<g>
				<path class="st15" d="M-471.74,159.98c2.28-8.12,2.84-16.76,0.97-25.03c-6.32-27.79-4.94-60.3,9.43-83.61
					c9.73-15.79,28.62-27.42,44.89-20.69c13.02,5.35,20.09,22.44,21.73,38.68c2.17,21.7-3.48,44.14-15.37,60.97
					c-8.15,11.52-10.55,27.27-6.02,41.3l4.79,14.89c4,12.49,7.89,27.38-1.38,37.78c-3.7,4.15-8.79,6.21-13.88,6.7
					c-17.28,1.72-37.82-9.99-45.94-27.94C-478.17,190.5-476,175.28-471.74,159.98z"/>
				<g>
					<path class="st15" d="M-438.52,38.07c21.1,28.09,76.39,57.31,125.8,50.91c5.84-0.75,9.69-2.58,12.16-4.98
						c6.25-6.21,3.37-16.5-0.71-24.39c-9.02-17.36-19.3-32.32-39.76-45.3C-361.46,1.3-389.78-4.2-412.75,3.58
						c-6.7,2.28-12.46,5.16-16.98,8.42C-440.77,19.81-444.81,29.73-438.52,38.07z"/>
					<path class="st16" d="M-429.73,12.03c9.84-3.03,20.46-3.78,30.67-2.62c19.15,2.28,37.07,10.74,53.72,20.5
						c14.51,8.53,28.8,18.59,37.56,32.92c3.89,6.36,6.43,13.77,7.22,21.17c6.25-6.21,3.37-16.5-0.71-24.39
						c-9.02-17.36-19.3-32.32-39.76-45.3C-361.46,1.3-389.78-4.2-412.75,3.58C-419.44,5.86-425.17,8.74-429.73,12.03z"/>
				</g>
			</g>
		</g>
		<g>
			<g>
				<g>
					<polygon class="st9" points="-441.06,438.06 -344.59,486.21 -195.3,489.05 -190.62,480.75 -193.2,479.33 -275.95,432.9 
						-439.83,430.58 -439.83,430.62 					"/>
					<g>
						<polygon class="st10" points="-439.83,430.58 -439.83,430.62 -340.93,480 -193.2,479.33 -275.95,432.9 						"/>
						<g>
							<g>
								<g>
									<polygon class="st11" points="-334.23,473.68 -392.58,445.43 -264.99,446.86 -293.64,469.23 									"/>
								</g>
								<g>
									<g>
										<polygon class="st10" points="-358.8,465.98 -295.24,465.34 -295.26,463.38 -358.82,464.02 										"/>
									</g>
									<g>
										<polygon class="st10" points="-373.53,458.61 -310.02,457.98 -310.04,456.01 -373.56,456.65 										"/>
									</g>
									<g>
										<polygon class="st10" points="-386.21,451.24 -322.66,450.61 -322.68,448.64 -386.23,449.28 										"/>
									</g>
									<g>
										
											<rect x="-363.49" y="421.63" transform="matrix(0.4457 -0.8952 0.8952 0.4457 -606.8394 -73.18)" class="st10" width="1.96" height="63.54"/>
									</g>
									<g>
										
											<rect x="-349.76" y="418.49" transform="matrix(0.4456 -0.8952 0.8952 0.4456 -596.4447 -62.6172)" class="st10" width="1.96" height="63.54"/>
									</g>
									<g>
										<polygon class="st10" points="-306.1,462.13 -305.2,460.38 -354.02,435.21 -354.92,436.96 										"/>
									</g>
								</g>
							</g>
							<g>
								<polygon class="st11" points="-328.8,435.04 -375.3,435.04 -357.76,443.23 -311.04,443.68 								"/>
							</g>
						</g>
					</g>
				</g>
				<g>
					<polyline class="st9" points="-147.12,382.96 -98.83,358.84 -105.63,350.64 -259.41,349.45 -344.52,476.37 -339.28,483.37 
											"/>
					<polygon class="st12" points="-339.28,483.29 -254.85,357.94 -98.83,358.65 -183.03,483.81 					"/>
					<path class="st4" d="M-211.72,407.88c13.64,0,24.69,4.62,24.69,10.32c0,5.7-11.05,10.32-24.69,10.32
						c-13.64,0-24.69-4.62-24.69-10.32C-236.41,412.5-225.36,407.88-211.72,407.88z"/>
				</g>
			</g>
			<path class="st6" d="M-430.63,412.85c18.78-6.88,48.97-19.04,59.85-15.19c11.3,3.97,22.11,19.9,26.86,36.06
				c0.45,1.57,0.86,3.25,0.49,4.86c-0.37,1.61-1.83,3.07-3.44,2.88c-1.35-0.15-2.36-1.35-3.22-2.43
				c-5.91-7.67-11.82-15.37-19.3-23.23c6.21,7.86,10.59,17.21,12.68,27.05c0.52,2.43,0.45,5.72-1.91,6.47
				c-2.21,0.71-4.11-1.61-5.27-3.59c-5.01-8.42-9.99-16.83-16.5-25.89c4.15,7,7.07,14.74,8.57,22.78c0.41,2.17,0.3,5.05-1.76,5.76
				c-1.91,0.64-3.63-1.23-4.75-2.92c-4.45-6.66-8.53-13.62-12.61-21.02c1.76,6.02,3.55,12.05,5.31,18.07
				c0.71,2.39,1.08,5.65-1.08,6.81c-1.98,1.08-4.3-0.6-5.8-2.28c-4.15-4.6-7.37-7.97-9.39-13.17c-4.71,5.84-11.86,7.52-19.26,8.15
				c-7.44,0.64-16.2-4.3-22.33-8.15C-439.42,426.47-434.89,421.16-430.63,412.85z"/>
		</g>
		<path class="st1" d="M-496.28,210.89c-18.4,0.82-38.34,19.26-50.2,83.98c-10.47,57.16-14.93,113.42-9.39,126.59
			c4.19,9.88,117.23,36.47,117.23,36.47l15-50.65c0,0-55.14-16.12-60.41-27.76c-2.47-5.5,5.57-40.59,13.69-88.17
			C-463.58,251.78-472.07,209.84-496.28,210.89z"/>
	</g>
</g>
</svg>
